<mxfile host="app.diagrams.net" modified="2023-12-04T09:25:06.874Z" agent="Mozilla/5.0 (Windows NT 10.0; Win64; x64) AppleWebKit/537.36 (KHTML, like Gecko) Chrome/119.0.0.0 Safari/537.36" etag="6Ax2PWEGhpGxyX9KSWGm" version="22.1.5" type="device" pages="3">
  <diagram id="jfQPMkhc_m6EBnlb_j9M" name="[USECASE] Shop Management System">
    <mxGraphModel dx="2049" dy="1071" grid="1" gridSize="10" guides="1" tooltips="1" connect="1" arrows="1" fold="1" page="1" pageScale="1" pageWidth="850" pageHeight="1100" math="0" shadow="0">
      <root>
        <mxCell id="0" />
        <mxCell id="1" parent="0" />
        <mxCell id="HeFsyeJPPzmemS84JjWQ-73" value="" style="rounded=1;whiteSpace=wrap;html=1;labelBackgroundColor=none;align=center;verticalAlign=middle;fontFamily=Helvetica;fontSize=9;fontColor=none;fillColor=default;gradientColor=none;noLabel=1;" parent="1" vertex="1">
          <mxGeometry x="180" y="100" width="980" height="1335" as="geometry" />
        </mxCell>
        <mxCell id="7bqAnTobCl2Co9yz6yof-5" style="edgeStyle=orthogonalEdgeStyle;rounded=0;orthogonalLoop=1;jettySize=auto;html=1;entryX=0;entryY=0.5;entryDx=0;entryDy=0;endArrow=none;endFill=0;" parent="1" source="7bqAnTobCl2Co9yz6yof-1" target="7bqAnTobCl2Co9yz6yof-3" edge="1">
          <mxGeometry relative="1" as="geometry">
            <Array as="points">
              <mxPoint x="160" y="730" />
              <mxPoint x="160" y="250" />
            </Array>
          </mxGeometry>
        </mxCell>
        <mxCell id="7bqAnTobCl2Co9yz6yof-13" style="edgeStyle=orthogonalEdgeStyle;rounded=0;orthogonalLoop=1;jettySize=auto;html=1;entryX=0;entryY=0.5;entryDx=0;entryDy=0;endArrow=none;endFill=0;" parent="1" source="7bqAnTobCl2Co9yz6yof-1" target="7bqAnTobCl2Co9yz6yof-12" edge="1">
          <mxGeometry relative="1" as="geometry">
            <Array as="points">
              <mxPoint x="160" y="730" />
              <mxPoint x="160" y="300" />
              <mxPoint x="455" y="300" />
              <mxPoint x="455" y="270" />
            </Array>
          </mxGeometry>
        </mxCell>
        <mxCell id="7bqAnTobCl2Co9yz6yof-24" style="edgeStyle=orthogonalEdgeStyle;shape=connector;rounded=0;orthogonalLoop=1;jettySize=auto;html=1;entryX=0;entryY=0.5;entryDx=0;entryDy=0;labelBackgroundColor=default;strokeColor=default;align=center;verticalAlign=middle;fontFamily=Helvetica;fontSize=11;fontColor=default;endArrow=none;endFill=0;" parent="1" source="7bqAnTobCl2Co9yz6yof-1" target="7bqAnTobCl2Co9yz6yof-23" edge="1">
          <mxGeometry relative="1" as="geometry">
            <Array as="points">
              <mxPoint x="160" y="730" />
              <mxPoint x="160" y="360" />
            </Array>
          </mxGeometry>
        </mxCell>
        <mxCell id="7bqAnTobCl2Co9yz6yof-87" style="edgeStyle=orthogonalEdgeStyle;shape=connector;rounded=0;orthogonalLoop=1;jettySize=auto;html=1;entryX=0;entryY=0.5;entryDx=0;entryDy=0;labelBackgroundColor=default;strokeColor=default;align=center;verticalAlign=middle;fontFamily=Helvetica;fontSize=11;fontColor=default;endArrow=none;endFill=0;" parent="1" source="7bqAnTobCl2Co9yz6yof-1" target="7bqAnTobCl2Co9yz6yof-86" edge="1">
          <mxGeometry relative="1" as="geometry">
            <Array as="points">
              <mxPoint x="160" y="730" />
              <mxPoint x="160" y="1050" />
            </Array>
          </mxGeometry>
        </mxCell>
        <mxCell id="7bqAnTobCl2Co9yz6yof-105" style="edgeStyle=orthogonalEdgeStyle;shape=connector;rounded=0;orthogonalLoop=1;jettySize=auto;html=1;entryX=0;entryY=0.5;entryDx=0;entryDy=0;labelBackgroundColor=default;strokeColor=default;align=center;verticalAlign=middle;fontFamily=Helvetica;fontSize=11;fontColor=default;endArrow=none;endFill=0;" parent="1" source="7bqAnTobCl2Co9yz6yof-1" target="7bqAnTobCl2Co9yz6yof-104" edge="1">
          <mxGeometry relative="1" as="geometry">
            <Array as="points">
              <mxPoint x="160" y="730" />
              <mxPoint x="160" y="1215" />
            </Array>
          </mxGeometry>
        </mxCell>
        <mxCell id="7bqAnTobCl2Co9yz6yof-1" value="&lt;b&gt;Admin&lt;/b&gt;" style="shape=umlActor;verticalLabelPosition=bottom;verticalAlign=top;html=1;outlineConnect=0;fillColor=#f5f5f5;fontColor=#333333;strokeColor=#666666;" parent="1" vertex="1">
          <mxGeometry x="10" y="690" width="70" height="110" as="geometry" />
        </mxCell>
        <mxCell id="HeFsyeJPPzmemS84JjWQ-5" style="edgeStyle=none;shape=connector;rounded=0;orthogonalLoop=1;jettySize=auto;html=1;exitX=0.5;exitY=0;exitDx=0;exitDy=0;entryX=0.5;entryY=1;entryDx=0;entryDy=0;dashed=1;labelBackgroundColor=default;strokeColor=default;align=center;verticalAlign=middle;fontFamily=Helvetica;fontSize=11;fontColor=default;endArrow=block;endFill=1;" parent="1" source="7bqAnTobCl2Co9yz6yof-3" target="7bqAnTobCl2Co9yz6yof-4" edge="1">
          <mxGeometry relative="1" as="geometry" />
        </mxCell>
        <mxCell id="HeFsyeJPPzmemS84JjWQ-6" value="&amp;lt;&amp;lt;include&amp;gt;&amp;gt;" style="edgeLabel;html=1;align=center;verticalAlign=middle;resizable=0;points=[];fontSize=9;fontFamily=Helvetica;fontColor=#7A7A7A;fontStyle=2;" parent="HeFsyeJPPzmemS84JjWQ-5" vertex="1" connectable="0">
          <mxGeometry x="0.0122" y="1" relative="1" as="geometry">
            <mxPoint x="-1" y="-5" as="offset" />
          </mxGeometry>
        </mxCell>
        <mxCell id="7bqAnTobCl2Co9yz6yof-3" value="&lt;b&gt;Authentication&lt;/b&gt;" style="ellipse;whiteSpace=wrap;html=1;fillColor=#dae8fc;strokeColor=default;strokeWidth=0;" parent="1" vertex="1">
          <mxGeometry x="235" y="230" width="130" height="40" as="geometry" />
        </mxCell>
        <mxCell id="7bqAnTobCl2Co9yz6yof-4" value="2FA" style="ellipse;whiteSpace=wrap;html=1;fontSize=10;fillColor=#f5f5f5;strokeColor=default;fontColor=#333333;labelBackgroundColor=none;fontStyle=1;strokeWidth=0;" parent="1" vertex="1">
          <mxGeometry x="235" y="160" width="130" height="40" as="geometry" />
        </mxCell>
        <mxCell id="HeFsyeJPPzmemS84JjWQ-45" style="edgeStyle=none;shape=connector;rounded=0;orthogonalLoop=1;jettySize=auto;html=1;exitX=1;exitY=0;exitDx=0;exitDy=0;entryX=0;entryY=1;entryDx=0;entryDy=0;dashed=1;labelBackgroundColor=default;strokeColor=default;align=center;verticalAlign=middle;fontFamily=Helvetica;fontSize=11;fontColor=default;endArrow=block;endFill=1;" parent="1" source="7bqAnTobCl2Co9yz6yof-12" target="7bqAnTobCl2Co9yz6yof-17" edge="1">
          <mxGeometry relative="1" as="geometry" />
        </mxCell>
        <mxCell id="HeFsyeJPPzmemS84JjWQ-64" value="&amp;lt;&amp;lt;include&amp;gt;&amp;gt;" style="edgeLabel;html=1;align=center;verticalAlign=middle;resizable=0;points=[];fontSize=9;fontFamily=Helvetica;fontColor=#7A7A7A;" parent="HeFsyeJPPzmemS84JjWQ-45" vertex="1" connectable="0">
          <mxGeometry x="0.0011" y="-3" relative="1" as="geometry">
            <mxPoint as="offset" />
          </mxGeometry>
        </mxCell>
        <mxCell id="HeFsyeJPPzmemS84JjWQ-46" style="edgeStyle=none;shape=connector;rounded=0;orthogonalLoop=1;jettySize=auto;html=1;exitX=1;exitY=0.5;exitDx=0;exitDy=0;entryX=0;entryY=0.5;entryDx=0;entryDy=0;dashed=1;labelBackgroundColor=default;strokeColor=default;align=center;verticalAlign=middle;fontFamily=Helvetica;fontSize=11;fontColor=default;endArrow=block;endFill=1;" parent="1" source="7bqAnTobCl2Co9yz6yof-12" target="7bqAnTobCl2Co9yz6yof-18" edge="1">
          <mxGeometry relative="1" as="geometry" />
        </mxCell>
        <mxCell id="HeFsyeJPPzmemS84JjWQ-65" value="&amp;lt;&amp;lt;include&amp;gt;&amp;gt;" style="edgeLabel;html=1;align=center;verticalAlign=middle;resizable=0;points=[];fontSize=9;fontFamily=Helvetica;fontColor=#7A7A7A;" parent="HeFsyeJPPzmemS84JjWQ-46" vertex="1" connectable="0">
          <mxGeometry x="-0.0229" y="1" relative="1" as="geometry">
            <mxPoint as="offset" />
          </mxGeometry>
        </mxCell>
        <mxCell id="HeFsyeJPPzmemS84JjWQ-49" style="edgeStyle=none;shape=connector;rounded=0;orthogonalLoop=1;jettySize=auto;html=1;exitX=1;exitY=1;exitDx=0;exitDy=0;entryX=0;entryY=0;entryDx=0;entryDy=0;dashed=1;labelBackgroundColor=default;strokeColor=default;align=center;verticalAlign=middle;fontFamily=Helvetica;fontSize=11;fontColor=default;endArrow=block;endFill=1;" parent="1" source="7bqAnTobCl2Co9yz6yof-12" target="7bqAnTobCl2Co9yz6yof-32" edge="1">
          <mxGeometry relative="1" as="geometry" />
        </mxCell>
        <mxCell id="HeFsyeJPPzmemS84JjWQ-66" value="&amp;lt;&amp;lt;include&amp;gt;&amp;gt;" style="edgeLabel;html=1;align=center;verticalAlign=middle;resizable=0;points=[];fontSize=9;fontFamily=Helvetica;fontColor=#7A7A7A;" parent="HeFsyeJPPzmemS84JjWQ-49" vertex="1" connectable="0">
          <mxGeometry x="0.0195" y="1" relative="1" as="geometry">
            <mxPoint as="offset" />
          </mxGeometry>
        </mxCell>
        <mxCell id="HeFsyeJPPzmemS84JjWQ-59" style="edgeStyle=none;shape=connector;rounded=0;orthogonalLoop=1;jettySize=auto;html=1;exitX=0.5;exitY=1;exitDx=0;exitDy=0;entryX=0.5;entryY=0;entryDx=0;entryDy=0;dashed=1;labelBackgroundColor=default;strokeColor=default;align=center;verticalAlign=middle;fontFamily=Helvetica;fontSize=11;fontColor=default;endArrow=block;endFill=1;" parent="1" source="7bqAnTobCl2Co9yz6yof-12" target="7bqAnTobCl2Co9yz6yof-38" edge="1">
          <mxGeometry relative="1" as="geometry" />
        </mxCell>
        <mxCell id="HeFsyeJPPzmemS84JjWQ-67" value="&amp;lt;&amp;lt;include&amp;gt;&amp;gt;" style="edgeLabel;html=1;align=center;verticalAlign=middle;resizable=0;points=[];fontSize=9;fontFamily=Helvetica;fontColor=#7A7A7A;" parent="HeFsyeJPPzmemS84JjWQ-59" vertex="1" connectable="0">
          <mxGeometry x="-0.1893" y="-1" relative="1" as="geometry">
            <mxPoint as="offset" />
          </mxGeometry>
        </mxCell>
        <mxCell id="HeFsyeJPPzmemS84JjWQ-61" style="edgeStyle=none;shape=connector;rounded=0;orthogonalLoop=1;jettySize=auto;html=1;exitX=0.5;exitY=0;exitDx=0;exitDy=0;entryX=0.5;entryY=1;entryDx=0;entryDy=0;dashed=1;labelBackgroundColor=default;strokeColor=default;align=center;verticalAlign=middle;fontFamily=Helvetica;fontSize=9;fontColor=#7A7A7A;endArrow=block;endFill=1;" parent="1" source="7bqAnTobCl2Co9yz6yof-12" target="7bqAnTobCl2Co9yz6yof-15" edge="1">
          <mxGeometry relative="1" as="geometry">
            <mxPoint x="481.25" y="190" as="targetPoint" />
          </mxGeometry>
        </mxCell>
        <mxCell id="HeFsyeJPPzmemS84JjWQ-62" value="&amp;lt;&amp;lt;include&amp;gt;&amp;gt;" style="edgeLabel;html=1;align=center;verticalAlign=middle;resizable=0;points=[];fontSize=9;fontFamily=Helvetica;fontColor=#7A7A7A;" parent="HeFsyeJPPzmemS84JjWQ-61" vertex="1" connectable="0">
          <mxGeometry x="0.0565" y="2" relative="1" as="geometry">
            <mxPoint as="offset" />
          </mxGeometry>
        </mxCell>
        <mxCell id="7bqAnTobCl2Co9yz6yof-12" value="Dashboard" style="ellipse;whiteSpace=wrap;html=1;fontStyle=1;strokeWidth=0;fillColor=#dae8fc;strokeColor=default;" parent="1" vertex="1">
          <mxGeometry x="590" y="250" width="130" height="40" as="geometry" />
        </mxCell>
        <mxCell id="7bqAnTobCl2Co9yz6yof-15" value="Aggregates over time interval" style="ellipse;whiteSpace=wrap;html=1;fontSize=10;fillColor=#f5f5f5;strokeColor=default;fontColor=#333333;labelBackgroundColor=none;fontStyle=1;strokeWidth=0;" parent="1" vertex="1">
          <mxGeometry x="590" y="160" width="130" height="40" as="geometry" />
        </mxCell>
        <mxCell id="7bqAnTobCl2Co9yz6yof-17" value="Query indicators" style="ellipse;whiteSpace=wrap;html=1;fontSize=10;fillColor=#f5f5f5;strokeColor=default;fontColor=#333333;labelBackgroundColor=none;fontStyle=1;strokeWidth=0;" parent="1" vertex="1">
          <mxGeometry x="770" y="160" width="130" height="40" as="geometry" />
        </mxCell>
        <mxCell id="7bqAnTobCl2Co9yz6yof-18" value="Charts and numeric values" style="ellipse;whiteSpace=wrap;html=1;fontSize=10;fillColor=#f5f5f5;strokeColor=default;fontColor=#333333;labelBackgroundColor=none;fontStyle=1;strokeWidth=0;" parent="1" vertex="1">
          <mxGeometry x="816.25" y="250" width="130" height="40" as="geometry" />
        </mxCell>
        <mxCell id="HeFsyeJPPzmemS84JjWQ-79" style="edgeStyle=none;shape=connector;rounded=0;orthogonalLoop=1;jettySize=auto;html=1;exitX=1;exitY=0.5;exitDx=0;exitDy=0;entryX=0;entryY=0.5;entryDx=0;entryDy=0;dashed=1;labelBackgroundColor=default;strokeColor=default;align=center;verticalAlign=middle;fontFamily=Helvetica;fontSize=9;fontColor=#7A7A7A;endArrow=block;endFill=1;" parent="1" source="7bqAnTobCl2Co9yz6yof-23" target="7bqAnTobCl2Co9yz6yof-25" edge="1">
          <mxGeometry relative="1" as="geometry" />
        </mxCell>
        <mxCell id="HeFsyeJPPzmemS84JjWQ-86" value="&amp;lt;&amp;lt;include&amp;gt;&amp;gt;" style="edgeLabel;html=1;align=center;verticalAlign=middle;resizable=0;points=[];fontSize=9;fontFamily=Helvetica;fontColor=#7A7A7A;" parent="HeFsyeJPPzmemS84JjWQ-79" vertex="1" connectable="0">
          <mxGeometry x="-0.203" relative="1" as="geometry">
            <mxPoint as="offset" />
          </mxGeometry>
        </mxCell>
        <mxCell id="HeFsyeJPPzmemS84JjWQ-80" style="edgeStyle=orthogonalEdgeStyle;shape=connector;rounded=0;orthogonalLoop=1;jettySize=auto;html=1;exitX=1;exitY=1;exitDx=0;exitDy=0;entryX=0;entryY=0.5;entryDx=0;entryDy=0;dashed=1;labelBackgroundColor=default;strokeColor=default;align=center;verticalAlign=middle;fontFamily=Helvetica;fontSize=9;fontColor=#7A7A7A;endArrow=block;endFill=1;" parent="1" source="7bqAnTobCl2Co9yz6yof-23" target="7bqAnTobCl2Co9yz6yof-28" edge="1">
          <mxGeometry relative="1" as="geometry">
            <Array as="points">
              <mxPoint x="346" y="420" />
            </Array>
          </mxGeometry>
        </mxCell>
        <mxCell id="HeFsyeJPPzmemS84JjWQ-88" value="&amp;lt;&amp;lt;include&amp;gt;&amp;gt;" style="edgeLabel;html=1;align=center;verticalAlign=middle;resizable=0;points=[];fontSize=9;fontFamily=Helvetica;fontColor=#7A7A7A;" parent="HeFsyeJPPzmemS84JjWQ-80" vertex="1" connectable="0">
          <mxGeometry x="0.2103" y="1" relative="1" as="geometry">
            <mxPoint x="5" y="1" as="offset" />
          </mxGeometry>
        </mxCell>
        <mxCell id="HeFsyeJPPzmemS84JjWQ-85" style="edgeStyle=orthogonalEdgeStyle;shape=connector;rounded=0;orthogonalLoop=1;jettySize=auto;html=1;exitX=0.5;exitY=1;exitDx=0;exitDy=0;entryX=0;entryY=0.5;entryDx=0;entryDy=0;dashed=1;labelBackgroundColor=default;strokeColor=default;align=center;verticalAlign=middle;fontFamily=Helvetica;fontSize=9;fontColor=#7A7A7A;endArrow=block;endFill=1;" parent="1" source="7bqAnTobCl2Co9yz6yof-23" target="7bqAnTobCl2Co9yz6yof-40" edge="1">
          <mxGeometry relative="1" as="geometry" />
        </mxCell>
        <mxCell id="HeFsyeJPPzmemS84JjWQ-89" value="&amp;lt;&amp;lt;include&amp;gt;&amp;gt;" style="edgeLabel;html=1;align=center;verticalAlign=middle;resizable=0;points=[];fontSize=9;fontFamily=Helvetica;fontColor=#7A7A7A;" parent="HeFsyeJPPzmemS84JjWQ-85" vertex="1" connectable="0">
          <mxGeometry x="0.5827" y="1" relative="1" as="geometry">
            <mxPoint x="-25" y="1" as="offset" />
          </mxGeometry>
        </mxCell>
        <mxCell id="HeFsyeJPPzmemS84JjWQ-93" style="edgeStyle=orthogonalEdgeStyle;shape=connector;rounded=0;orthogonalLoop=1;jettySize=auto;html=1;entryX=0;entryY=0.5;entryDx=0;entryDy=0;dashed=1;labelBackgroundColor=default;strokeColor=default;align=center;verticalAlign=middle;fontFamily=Helvetica;fontSize=9;fontColor=#7A7A7A;endArrow=block;endFill=1;" parent="1" source="7bqAnTobCl2Co9yz6yof-23" target="7bqAnTobCl2Co9yz6yof-48" edge="1">
          <mxGeometry relative="1" as="geometry">
            <Array as="points">
              <mxPoint x="300" y="540" />
            </Array>
          </mxGeometry>
        </mxCell>
        <mxCell id="HeFsyeJPPzmemS84JjWQ-94" value="&amp;lt;&amp;lt;include&amp;gt;&amp;gt;" style="edgeLabel;html=1;align=center;verticalAlign=middle;resizable=0;points=[];fontSize=9;fontFamily=Helvetica;fontColor=#7A7A7A;" parent="HeFsyeJPPzmemS84JjWQ-93" vertex="1" connectable="0">
          <mxGeometry x="0.7181" relative="1" as="geometry">
            <mxPoint x="-32" as="offset" />
          </mxGeometry>
        </mxCell>
        <mxCell id="HeFsyeJPPzmemS84JjWQ-101" style="edgeStyle=orthogonalEdgeStyle;shape=connector;rounded=0;orthogonalLoop=1;jettySize=auto;html=1;entryX=0;entryY=0.5;entryDx=0;entryDy=0;dashed=1;labelBackgroundColor=default;strokeColor=default;align=center;verticalAlign=middle;fontFamily=Helvetica;fontSize=9;fontColor=#7A7A7A;endArrow=block;endFill=1;" parent="1" source="7bqAnTobCl2Co9yz6yof-23" target="7bqAnTobCl2Co9yz6yof-50" edge="1">
          <mxGeometry relative="1" as="geometry">
            <Array as="points">
              <mxPoint x="300" y="680" />
            </Array>
          </mxGeometry>
        </mxCell>
        <mxCell id="HeFsyeJPPzmemS84JjWQ-102" value="&amp;lt;&amp;lt;include&amp;gt;&amp;gt;" style="edgeLabel;html=1;align=center;verticalAlign=middle;resizable=0;points=[];fontSize=9;fontFamily=Helvetica;fontColor=#7A7A7A;" parent="HeFsyeJPPzmemS84JjWQ-101" vertex="1" connectable="0">
          <mxGeometry x="0.8293" y="3" relative="1" as="geometry">
            <mxPoint x="-38" y="3" as="offset" />
          </mxGeometry>
        </mxCell>
        <mxCell id="HeFsyeJPPzmemS84JjWQ-109" style="edgeStyle=orthogonalEdgeStyle;shape=connector;rounded=0;orthogonalLoop=1;jettySize=auto;html=1;entryX=0.5;entryY=1;entryDx=0;entryDy=0;dashed=1;labelBackgroundColor=default;strokeColor=default;align=center;verticalAlign=middle;fontFamily=Helvetica;fontSize=9;fontColor=#7A7A7A;endArrow=block;endFill=1;" parent="1" source="7bqAnTobCl2Co9yz6yof-23" target="7bqAnTobCl2Co9yz6yof-58" edge="1">
          <mxGeometry relative="1" as="geometry">
            <Array as="points">
              <mxPoint x="300" y="760" />
              <mxPoint x="845" y="760" />
            </Array>
          </mxGeometry>
        </mxCell>
        <mxCell id="HeFsyeJPPzmemS84JjWQ-113" value="&amp;lt;&amp;lt;include&amp;gt;&amp;gt;" style="edgeLabel;html=1;align=center;verticalAlign=middle;resizable=0;points=[];fontSize=9;fontFamily=Helvetica;fontColor=#7A7A7A;" parent="HeFsyeJPPzmemS84JjWQ-109" vertex="1" connectable="0">
          <mxGeometry x="0.8666" y="2" relative="1" as="geometry">
            <mxPoint x="-446" y="2" as="offset" />
          </mxGeometry>
        </mxCell>
        <mxCell id="HeFsyeJPPzmemS84JjWQ-117" style="edgeStyle=orthogonalEdgeStyle;shape=connector;rounded=0;orthogonalLoop=1;jettySize=auto;html=1;entryX=0;entryY=0.5;entryDx=0;entryDy=0;dashed=1;labelBackgroundColor=default;strokeColor=default;align=center;verticalAlign=middle;fontFamily=Helvetica;fontSize=9;fontColor=#7A7A7A;endArrow=block;endFill=1;" parent="1" source="7bqAnTobCl2Co9yz6yof-23" target="7bqAnTobCl2Co9yz6yof-68" edge="1">
          <mxGeometry relative="1" as="geometry">
            <Array as="points">
              <mxPoint x="300" y="860" />
            </Array>
          </mxGeometry>
        </mxCell>
        <mxCell id="HeFsyeJPPzmemS84JjWQ-118" value="&amp;lt;&amp;lt;include&amp;gt;&amp;gt;" style="edgeLabel;html=1;align=center;verticalAlign=middle;resizable=0;points=[];fontSize=9;fontFamily=Helvetica;fontColor=#7A7A7A;" parent="HeFsyeJPPzmemS84JjWQ-117" vertex="1" connectable="0">
          <mxGeometry x="0.8032" y="2" relative="1" as="geometry">
            <mxPoint x="-14" y="2" as="offset" />
          </mxGeometry>
        </mxCell>
        <mxCell id="7bqAnTobCl2Co9yz6yof-23" value="Product management" style="ellipse;whiteSpace=wrap;html=1;fillColor=#dae8fc;fontColor=default;labelBackgroundColor=none;strokeWidth=0;fontSize=12;fontStyle=1" parent="1" vertex="1">
          <mxGeometry x="235" y="340" width="130" height="40" as="geometry" />
        </mxCell>
        <mxCell id="7bqAnTobCl2Co9yz6yof-25" value="CRUD" style="ellipse;whiteSpace=wrap;html=1;fontSize=10;fillColor=#f5f5f5;fontColor=#333333;strokeWidth=0;fontStyle=1;" parent="1" vertex="1">
          <mxGeometry x="440" y="340" width="130" height="40" as="geometry" />
        </mxCell>
        <mxCell id="7bqAnTobCl2Co9yz6yof-28" value="History management" style="ellipse;whiteSpace=wrap;html=1;fillColor=#fff2cc;strokeColor=default;fontSize=10;fontColor=#CC6600;labelBackgroundColor=none;strokeWidth=0;" parent="1" vertex="1">
          <mxGeometry x="440" y="400" width="130" height="40" as="geometry" />
        </mxCell>
        <mxCell id="HeFsyeJPPzmemS84JjWQ-56" style="edgeStyle=none;shape=connector;rounded=0;orthogonalLoop=1;jettySize=auto;html=1;exitX=1;exitY=0.5;exitDx=0;exitDy=0;entryX=0;entryY=0.5;entryDx=0;entryDy=0;dashed=1;labelBackgroundColor=default;strokeColor=default;align=center;verticalAlign=middle;fontFamily=Helvetica;fontSize=11;fontColor=default;endArrow=block;endFill=1;" parent="1" source="7bqAnTobCl2Co9yz6yof-32" target="7bqAnTobCl2Co9yz6yof-34" edge="1">
          <mxGeometry relative="1" as="geometry" />
        </mxCell>
        <mxCell id="HeFsyeJPPzmemS84JjWQ-68" value="&amp;lt;&amp;lt;include&amp;gt;&amp;gt;" style="edgeLabel;html=1;align=center;verticalAlign=middle;resizable=0;points=[];fontSize=9;fontFamily=Helvetica;fontColor=#7A7A7A;" parent="HeFsyeJPPzmemS84JjWQ-56" vertex="1" connectable="0">
          <mxGeometry x="-0.2786" y="2" relative="1" as="geometry">
            <mxPoint as="offset" />
          </mxGeometry>
        </mxCell>
        <mxCell id="HeFsyeJPPzmemS84JjWQ-57" style="edgeStyle=none;shape=connector;rounded=0;orthogonalLoop=1;jettySize=auto;html=1;exitX=0.5;exitY=1;exitDx=0;exitDy=0;entryX=0.5;entryY=0;entryDx=0;entryDy=0;dashed=1;labelBackgroundColor=default;strokeColor=default;align=center;verticalAlign=middle;fontFamily=Helvetica;fontSize=11;fontColor=default;endArrow=block;endFill=1;" parent="1" source="7bqAnTobCl2Co9yz6yof-32" target="7bqAnTobCl2Co9yz6yof-35" edge="1">
          <mxGeometry relative="1" as="geometry" />
        </mxCell>
        <mxCell id="HeFsyeJPPzmemS84JjWQ-69" value="&amp;lt;&amp;lt;include&amp;gt;&amp;gt;" style="edgeLabel;html=1;align=center;verticalAlign=middle;resizable=0;points=[];fontSize=9;fontFamily=Helvetica;fontColor=#7A7A7A;" parent="HeFsyeJPPzmemS84JjWQ-57" vertex="1" connectable="0">
          <mxGeometry x="-0.2857" y="-1" relative="1" as="geometry">
            <mxPoint as="offset" />
          </mxGeometry>
        </mxCell>
        <mxCell id="7bqAnTobCl2Co9yz6yof-32" value="User device indicator" style="ellipse;whiteSpace=wrap;html=1;fillColor=#fff2cc;strokeColor=default;fontColor=#CC6600;labelBackgroundColor=none;strokeWidth=0;fontSize=10;" parent="1" vertex="1">
          <mxGeometry x="770" y="340" width="130" height="40" as="geometry" />
        </mxCell>
        <mxCell id="7bqAnTobCl2Co9yz6yof-34" value="Google Analitics" style="ellipse;whiteSpace=wrap;html=1;fillColor=#fff2cc;strokeColor=default;fontColor=#CC6600;labelBackgroundColor=none;strokeWidth=0;fontSize=10;" parent="1" vertex="1">
          <mxGeometry x="990" y="340" width="130" height="40" as="geometry" />
        </mxCell>
        <mxCell id="7bqAnTobCl2Co9yz6yof-35" value="Proprietary" style="ellipse;whiteSpace=wrap;html=1;fillColor=#fff2cc;strokeColor=default;fontColor=#CC6600;labelBackgroundColor=none;strokeWidth=0;fontSize=10;" parent="1" vertex="1">
          <mxGeometry x="770" y="410" width="130" height="40" as="geometry" />
        </mxCell>
        <mxCell id="7bqAnTobCl2Co9yz6yof-38" value="Orders overview" style="ellipse;whiteSpace=wrap;html=1;fontSize=10;fillColor=#f5f5f5;strokeColor=default;fontColor=#333333;labelBackgroundColor=none;fontStyle=1;strokeWidth=0;" parent="1" vertex="1">
          <mxGeometry x="590" y="340" width="130" height="40" as="geometry" />
        </mxCell>
        <mxCell id="HeFsyeJPPzmemS84JjWQ-77" style="edgeStyle=none;shape=connector;rounded=0;orthogonalLoop=1;jettySize=auto;html=1;exitX=1;exitY=0.5;exitDx=0;exitDy=0;entryX=0;entryY=0.5;entryDx=0;entryDy=0;dashed=1;labelBackgroundColor=default;strokeColor=default;align=center;verticalAlign=middle;fontFamily=Helvetica;fontSize=9;fontColor=#7A7A7A;endArrow=block;endFill=1;" parent="1" source="7bqAnTobCl2Co9yz6yof-40" target="7bqAnTobCl2Co9yz6yof-42" edge="1">
          <mxGeometry relative="1" as="geometry" />
        </mxCell>
        <mxCell id="HeFsyeJPPzmemS84JjWQ-92" value="&amp;lt;&amp;lt;include&amp;gt;&amp;gt;" style="edgeLabel;html=1;align=center;verticalAlign=middle;resizable=0;points=[];fontSize=9;fontFamily=Helvetica;fontColor=#7A7A7A;" parent="HeFsyeJPPzmemS84JjWQ-77" vertex="1" connectable="0">
          <mxGeometry x="-0.1043" y="1" relative="1" as="geometry">
            <mxPoint as="offset" />
          </mxGeometry>
        </mxCell>
        <mxCell id="HeFsyeJPPzmemS84JjWQ-78" style="edgeStyle=none;shape=connector;rounded=0;orthogonalLoop=1;jettySize=auto;html=1;exitX=1;exitY=1;exitDx=0;exitDy=0;entryX=0;entryY=0;entryDx=0;entryDy=0;dashed=1;labelBackgroundColor=default;strokeColor=default;align=center;verticalAlign=middle;fontFamily=Helvetica;fontSize=9;fontColor=#7A7A7A;endArrow=block;endFill=1;" parent="1" source="7bqAnTobCl2Co9yz6yof-40" target="7bqAnTobCl2Co9yz6yof-46" edge="1">
          <mxGeometry relative="1" as="geometry" />
        </mxCell>
        <mxCell id="HeFsyeJPPzmemS84JjWQ-91" value="&amp;lt;&amp;lt;include&amp;gt;&amp;gt;" style="edgeLabel;html=1;align=center;verticalAlign=middle;resizable=0;points=[];fontSize=9;fontFamily=Helvetica;fontColor=#7A7A7A;" parent="HeFsyeJPPzmemS84JjWQ-78" vertex="1" connectable="0">
          <mxGeometry x="-0.0351" y="-4" relative="1" as="geometry">
            <mxPoint x="1" as="offset" />
          </mxGeometry>
        </mxCell>
        <mxCell id="HeFsyeJPPzmemS84JjWQ-84" style="edgeStyle=none;shape=connector;rounded=0;orthogonalLoop=1;jettySize=auto;html=1;exitX=1;exitY=0;exitDx=0;exitDy=0;entryX=0;entryY=1;entryDx=0;entryDy=0;dashed=1;labelBackgroundColor=default;strokeColor=default;align=center;verticalAlign=middle;fontFamily=Helvetica;fontSize=9;fontColor=#7A7A7A;endArrow=block;endFill=1;" parent="1" source="7bqAnTobCl2Co9yz6yof-40" target="7bqAnTobCl2Co9yz6yof-41" edge="1">
          <mxGeometry relative="1" as="geometry" />
        </mxCell>
        <mxCell id="HeFsyeJPPzmemS84JjWQ-90" value="&amp;lt;&amp;lt;include&amp;gt;&amp;gt;" style="edgeLabel;html=1;align=center;verticalAlign=middle;resizable=0;points=[];fontSize=9;fontFamily=Helvetica;fontColor=#7A7A7A;" parent="HeFsyeJPPzmemS84JjWQ-84" vertex="1" connectable="0">
          <mxGeometry x="-0.0424" y="1" relative="1" as="geometry">
            <mxPoint as="offset" />
          </mxGeometry>
        </mxCell>
        <mxCell id="7bqAnTobCl2Co9yz6yof-40" value="Multi media management" style="ellipse;whiteSpace=wrap;html=1;fontSize=10;fillColor=#f5f5f5;fontColor=#333333;strokeWidth=0;fontStyle=1;" parent="1" vertex="1">
          <mxGeometry x="440" y="460" width="130" height="40" as="geometry" />
        </mxCell>
        <mxCell id="7bqAnTobCl2Co9yz6yof-41" value="Photos" style="ellipse;whiteSpace=wrap;html=1;fontSize=10;fillColor=#f5f5f5;fontColor=#333333;strokeWidth=0;fontStyle=1;" parent="1" vertex="1">
          <mxGeometry x="600" y="400" width="130" height="40" as="geometry" />
        </mxCell>
        <mxCell id="7bqAnTobCl2Co9yz6yof-42" value="Videos" style="ellipse;whiteSpace=wrap;html=1;fillColor=#fff2cc;strokeColor=default;fontSize=10;fontColor=#CC6600;labelBackgroundColor=none;strokeWidth=0;" parent="1" vertex="1">
          <mxGeometry x="650" y="460" width="130" height="40" as="geometry" />
        </mxCell>
        <mxCell id="7bqAnTobCl2Co9yz6yof-46" value="Audio" style="ellipse;whiteSpace=wrap;html=1;fillColor=#fff2cc;strokeColor=default;fontSize=10;fontColor=#CC6600;labelBackgroundColor=none;strokeWidth=0;" parent="1" vertex="1">
          <mxGeometry x="600" y="530" width="130" height="40" as="geometry" />
        </mxCell>
        <mxCell id="HeFsyeJPPzmemS84JjWQ-95" style="edgeStyle=orthogonalEdgeStyle;shape=connector;rounded=0;orthogonalLoop=1;jettySize=auto;html=1;exitX=0.5;exitY=1;exitDx=0;exitDy=0;entryX=0.5;entryY=1;entryDx=0;entryDy=0;dashed=1;labelBackgroundColor=default;strokeColor=default;align=center;verticalAlign=middle;fontFamily=Helvetica;fontSize=9;fontColor=#7A7A7A;endArrow=block;endFill=1;" parent="1" source="7bqAnTobCl2Co9yz6yof-48" target="7bqAnTobCl2Co9yz6yof-70" edge="1">
          <mxGeometry relative="1" as="geometry">
            <Array as="points">
              <mxPoint x="505" y="590" />
              <mxPoint x="860" y="590" />
            </Array>
          </mxGeometry>
        </mxCell>
        <mxCell id="HeFsyeJPPzmemS84JjWQ-98" value="&amp;lt;&amp;lt;include&amp;gt;&amp;gt;" style="edgeLabel;html=1;align=center;verticalAlign=middle;resizable=0;points=[];fontSize=9;fontFamily=Helvetica;fontColor=#7A7A7A;" parent="HeFsyeJPPzmemS84JjWQ-95" vertex="1" connectable="0">
          <mxGeometry x="-0.0803" y="-1" relative="1" as="geometry">
            <mxPoint x="-419" y="99" as="offset" />
          </mxGeometry>
        </mxCell>
        <mxCell id="7bqAnTobCl2Co9yz6yof-48" value="Search, sort, filter" style="ellipse;whiteSpace=wrap;html=1;fontSize=10;fillColor=#f5f5f5;fontColor=#333333;strokeWidth=0;fontStyle=1;" parent="1" vertex="1">
          <mxGeometry x="440" y="520" width="130" height="40" as="geometry" />
        </mxCell>
        <mxCell id="HeFsyeJPPzmemS84JjWQ-103" style="edgeStyle=none;shape=connector;rounded=0;orthogonalLoop=1;jettySize=auto;html=1;exitX=1;exitY=0;exitDx=0;exitDy=0;entryX=0;entryY=1;entryDx=0;entryDy=0;dashed=1;labelBackgroundColor=default;strokeColor=default;align=center;verticalAlign=middle;fontFamily=Helvetica;fontSize=9;fontColor=#7A7A7A;endArrow=block;endFill=1;" parent="1" source="7bqAnTobCl2Co9yz6yof-50" target="7bqAnTobCl2Co9yz6yof-52" edge="1">
          <mxGeometry relative="1" as="geometry" />
        </mxCell>
        <mxCell id="HeFsyeJPPzmemS84JjWQ-106" value="&amp;lt;&amp;lt;include&amp;gt;&amp;gt;" style="edgeLabel;html=1;align=center;verticalAlign=middle;resizable=0;points=[];fontSize=9;fontFamily=Helvetica;fontColor=#7A7A7A;" parent="HeFsyeJPPzmemS84JjWQ-103" vertex="1" connectable="0">
          <mxGeometry x="0.0612" y="1" relative="1" as="geometry">
            <mxPoint y="-1" as="offset" />
          </mxGeometry>
        </mxCell>
        <mxCell id="HeFsyeJPPzmemS84JjWQ-104" style="edgeStyle=none;shape=connector;rounded=0;orthogonalLoop=1;jettySize=auto;html=1;exitX=1;exitY=0.5;exitDx=0;exitDy=0;entryX=0;entryY=0.5;entryDx=0;entryDy=0;dashed=1;labelBackgroundColor=default;strokeColor=default;align=center;verticalAlign=middle;fontFamily=Helvetica;fontSize=9;fontColor=#7A7A7A;endArrow=block;endFill=1;" parent="1" source="7bqAnTobCl2Co9yz6yof-50" target="7bqAnTobCl2Co9yz6yof-53" edge="1">
          <mxGeometry relative="1" as="geometry" />
        </mxCell>
        <mxCell id="HeFsyeJPPzmemS84JjWQ-107" value="&amp;lt;&amp;lt;include&amp;gt;&amp;gt;" style="edgeLabel;html=1;align=center;verticalAlign=middle;resizable=0;points=[];fontSize=9;fontFamily=Helvetica;fontColor=#7A7A7A;" parent="HeFsyeJPPzmemS84JjWQ-104" vertex="1" connectable="0">
          <mxGeometry x="-0.025" relative="1" as="geometry">
            <mxPoint as="offset" />
          </mxGeometry>
        </mxCell>
        <mxCell id="HeFsyeJPPzmemS84JjWQ-105" style="edgeStyle=none;shape=connector;rounded=0;orthogonalLoop=1;jettySize=auto;html=1;exitX=1;exitY=1;exitDx=0;exitDy=0;entryX=0;entryY=0;entryDx=0;entryDy=0;dashed=1;labelBackgroundColor=default;strokeColor=default;align=center;verticalAlign=middle;fontFamily=Helvetica;fontSize=9;fontColor=#7A7A7A;endArrow=block;endFill=1;" parent="1" source="7bqAnTobCl2Co9yz6yof-50" target="7bqAnTobCl2Co9yz6yof-54" edge="1">
          <mxGeometry relative="1" as="geometry" />
        </mxCell>
        <mxCell id="HeFsyeJPPzmemS84JjWQ-108" value="&amp;lt;&amp;lt;include&amp;gt;&amp;gt;" style="edgeLabel;html=1;align=center;verticalAlign=middle;resizable=0;points=[];fontSize=9;fontFamily=Helvetica;fontColor=#7A7A7A;" parent="HeFsyeJPPzmemS84JjWQ-105" vertex="1" connectable="0">
          <mxGeometry x="0.0711" y="-3" relative="1" as="geometry">
            <mxPoint y="-1" as="offset" />
          </mxGeometry>
        </mxCell>
        <mxCell id="7bqAnTobCl2Co9yz6yof-50" value="Export, Import" style="ellipse;whiteSpace=wrap;html=1;fontSize=10;fillColor=#f5f5f5;fontColor=#333333;strokeWidth=0;fontStyle=1;" parent="1" vertex="1">
          <mxGeometry x="440" y="660" width="130" height="40" as="geometry" />
        </mxCell>
        <mxCell id="7bqAnTobCl2Co9yz6yof-52" value="Spreadsheets" style="ellipse;whiteSpace=wrap;html=1;fontSize=10;fillColor=#f5f5f5;fontColor=#333333;strokeWidth=0;fontStyle=1;" parent="1" vertex="1">
          <mxGeometry x="600" y="610" width="130" height="40" as="geometry" />
        </mxCell>
        <mxCell id="7bqAnTobCl2Co9yz6yof-53" value="PDF" style="ellipse;whiteSpace=wrap;html=1;fillColor=#fff2cc;strokeColor=default;fontColor=#CC6600;labelBackgroundColor=none;strokeWidth=0;" parent="1" vertex="1">
          <mxGeometry x="650" y="660" width="130" height="40" as="geometry" />
        </mxCell>
        <mxCell id="7bqAnTobCl2Co9yz6yof-54" value="Word documents" style="ellipse;whiteSpace=wrap;html=1;fillColor=#fff2cc;strokeColor=default;fontColor=#CC6600;labelBackgroundColor=none;strokeWidth=0;" parent="1" vertex="1">
          <mxGeometry x="600" y="710" width="130" height="40" as="geometry" />
        </mxCell>
        <mxCell id="HeFsyeJPPzmemS84JjWQ-110" style="edgeStyle=none;shape=connector;rounded=0;orthogonalLoop=1;jettySize=auto;html=1;exitX=0.5;exitY=0;exitDx=0;exitDy=0;entryX=0.5;entryY=1;entryDx=0;entryDy=0;dashed=1;labelBackgroundColor=default;strokeColor=default;align=center;verticalAlign=middle;fontFamily=Helvetica;fontSize=9;fontColor=#7A7A7A;endArrow=block;endFill=1;" parent="1" source="7bqAnTobCl2Co9yz6yof-58" target="7bqAnTobCl2Co9yz6yof-60" edge="1">
          <mxGeometry relative="1" as="geometry" />
        </mxCell>
        <mxCell id="HeFsyeJPPzmemS84JjWQ-114" value="&amp;lt;&amp;lt;include&amp;gt;&amp;gt;" style="edgeLabel;html=1;align=center;verticalAlign=middle;resizable=0;points=[];fontSize=9;fontFamily=Helvetica;fontColor=#7A7A7A;" parent="HeFsyeJPPzmemS84JjWQ-110" vertex="1" connectable="0">
          <mxGeometry x="-0.0901" y="-1" relative="1" as="geometry">
            <mxPoint as="offset" />
          </mxGeometry>
        </mxCell>
        <mxCell id="HeFsyeJPPzmemS84JjWQ-111" style="edgeStyle=none;shape=connector;rounded=0;orthogonalLoop=1;jettySize=auto;html=1;exitX=1;exitY=0;exitDx=0;exitDy=0;entryX=0;entryY=0.5;entryDx=0;entryDy=0;dashed=1;labelBackgroundColor=default;strokeColor=default;align=center;verticalAlign=middle;fontFamily=Helvetica;fontSize=9;fontColor=#7A7A7A;endArrow=block;endFill=1;" parent="1" source="7bqAnTobCl2Co9yz6yof-58" target="7bqAnTobCl2Co9yz6yof-62" edge="1">
          <mxGeometry relative="1" as="geometry" />
        </mxCell>
        <mxCell id="HeFsyeJPPzmemS84JjWQ-115" value="&amp;lt;&amp;lt;include&amp;gt;&amp;gt;" style="edgeLabel;html=1;align=center;verticalAlign=middle;resizable=0;points=[];fontSize=9;fontFamily=Helvetica;fontColor=#7A7A7A;" parent="HeFsyeJPPzmemS84JjWQ-111" vertex="1" connectable="0">
          <mxGeometry x="-0.1228" y="-1" relative="1" as="geometry">
            <mxPoint as="offset" />
          </mxGeometry>
        </mxCell>
        <mxCell id="HeFsyeJPPzmemS84JjWQ-112" style="edgeStyle=none;shape=connector;rounded=0;orthogonalLoop=1;jettySize=auto;html=1;exitX=1;exitY=0.5;exitDx=0;exitDy=0;entryX=0;entryY=0.5;entryDx=0;entryDy=0;dashed=1;labelBackgroundColor=default;strokeColor=default;align=center;verticalAlign=middle;fontFamily=Helvetica;fontSize=9;fontColor=#7A7A7A;endArrow=block;endFill=1;" parent="1" source="7bqAnTobCl2Co9yz6yof-58" target="7bqAnTobCl2Co9yz6yof-61" edge="1">
          <mxGeometry relative="1" as="geometry" />
        </mxCell>
        <mxCell id="HeFsyeJPPzmemS84JjWQ-116" value="&amp;lt;&amp;lt;include&amp;gt;&amp;gt;" style="edgeLabel;html=1;align=center;verticalAlign=middle;resizable=0;points=[];fontSize=9;fontFamily=Helvetica;fontColor=#7A7A7A;" parent="HeFsyeJPPzmemS84JjWQ-112" vertex="1" connectable="0">
          <mxGeometry x="0.0527" y="3" relative="1" as="geometry">
            <mxPoint as="offset" />
          </mxGeometry>
        </mxCell>
        <mxCell id="7bqAnTobCl2Co9yz6yof-58" value="Archive management" style="ellipse;whiteSpace=wrap;html=1;fontSize=10;fillColor=#f5f5f5;fontColor=#333333;strokeWidth=0;fontStyle=1;" parent="1" vertex="1">
          <mxGeometry x="780" y="690" width="130" height="40" as="geometry" />
        </mxCell>
        <mxCell id="7bqAnTobCl2Co9yz6yof-60" value="Hide" style="ellipse;whiteSpace=wrap;html=1;fontSize=10;fillColor=#f5f5f5;fontColor=#333333;strokeWidth=0;fontStyle=1;" parent="1" vertex="1">
          <mxGeometry x="800" y="610" width="130" height="40" as="geometry" />
        </mxCell>
        <mxCell id="7bqAnTobCl2Co9yz6yof-61" value="Hard delete" style="ellipse;whiteSpace=wrap;html=1;fontSize=10;fillColor=#f5f5f5;fontColor=#333333;strokeWidth=0;fontStyle=1;" parent="1" vertex="1">
          <mxGeometry x="990" y="690" width="130" height="40" as="geometry" />
        </mxCell>
        <mxCell id="7bqAnTobCl2Co9yz6yof-62" value="Soft delete" style="ellipse;whiteSpace=wrap;html=1;fontSize=10;fillColor=#f5f5f5;fontColor=#333333;strokeWidth=0;fontStyle=1;" parent="1" vertex="1">
          <mxGeometry x="970" y="620" width="130" height="40" as="geometry" />
        </mxCell>
        <mxCell id="HeFsyeJPPzmemS84JjWQ-119" style="edgeStyle=none;shape=connector;rounded=0;orthogonalLoop=1;jettySize=auto;html=1;exitX=1;exitY=1;exitDx=0;exitDy=0;entryX=0;entryY=0;entryDx=0;entryDy=0;dashed=1;labelBackgroundColor=default;strokeColor=default;align=center;verticalAlign=middle;fontFamily=Helvetica;fontSize=9;fontColor=#7A7A7A;endArrow=block;endFill=1;" parent="1" source="7bqAnTobCl2Co9yz6yof-68" target="7bqAnTobCl2Co9yz6yof-82" edge="1">
          <mxGeometry relative="1" as="geometry" />
        </mxCell>
        <mxCell id="HeFsyeJPPzmemS84JjWQ-126" value="&amp;lt;&amp;lt;include&amp;gt;&amp;gt;" style="edgeLabel;html=1;align=center;verticalAlign=middle;resizable=0;points=[];fontSize=9;fontFamily=Helvetica;fontColor=#7A7A7A;" parent="HeFsyeJPPzmemS84JjWQ-119" vertex="1" connectable="0">
          <mxGeometry x="-0.2846" y="-2" relative="1" as="geometry">
            <mxPoint as="offset" />
          </mxGeometry>
        </mxCell>
        <mxCell id="HeFsyeJPPzmemS84JjWQ-120" style="edgeStyle=none;shape=connector;rounded=0;orthogonalLoop=1;jettySize=auto;html=1;exitX=1;exitY=0;exitDx=0;exitDy=0;entryX=0;entryY=1;entryDx=0;entryDy=0;dashed=1;labelBackgroundColor=default;strokeColor=default;align=center;verticalAlign=middle;fontFamily=Helvetica;fontSize=9;fontColor=#7A7A7A;endArrow=block;endFill=1;" parent="1" source="7bqAnTobCl2Co9yz6yof-68" target="7bqAnTobCl2Co9yz6yof-69" edge="1">
          <mxGeometry relative="1" as="geometry" />
        </mxCell>
        <mxCell id="HeFsyeJPPzmemS84JjWQ-123" value="&amp;lt;&amp;lt;include&amp;gt;&amp;gt;" style="edgeLabel;html=1;align=center;verticalAlign=middle;resizable=0;points=[];fontSize=9;fontFamily=Helvetica;fontColor=#7A7A7A;" parent="HeFsyeJPPzmemS84JjWQ-120" vertex="1" connectable="0">
          <mxGeometry x="-0.1718" y="-1" relative="1" as="geometry">
            <mxPoint as="offset" />
          </mxGeometry>
        </mxCell>
        <mxCell id="HeFsyeJPPzmemS84JjWQ-121" style="edgeStyle=none;shape=connector;rounded=0;orthogonalLoop=1;jettySize=auto;html=1;exitX=1;exitY=0.5;exitDx=0;exitDy=0;entryX=0;entryY=0.5;entryDx=0;entryDy=0;dashed=1;labelBackgroundColor=default;strokeColor=default;align=center;verticalAlign=middle;fontFamily=Helvetica;fontSize=9;fontColor=#7A7A7A;endArrow=block;endFill=1;" parent="1" source="7bqAnTobCl2Co9yz6yof-68" target="7bqAnTobCl2Co9yz6yof-78" edge="1">
          <mxGeometry relative="1" as="geometry" />
        </mxCell>
        <mxCell id="HeFsyeJPPzmemS84JjWQ-124" value="&amp;lt;&amp;lt;include&amp;gt;&amp;gt;" style="edgeLabel;html=1;align=center;verticalAlign=middle;resizable=0;points=[];fontSize=9;fontFamily=Helvetica;fontColor=#7A7A7A;" parent="HeFsyeJPPzmemS84JjWQ-121" vertex="1" connectable="0">
          <mxGeometry x="-0.163" relative="1" as="geometry">
            <mxPoint as="offset" />
          </mxGeometry>
        </mxCell>
        <mxCell id="7bqAnTobCl2Co9yz6yof-68" value="Category management" style="ellipse;whiteSpace=wrap;html=1;fontSize=10;fillColor=#f5f5f5;fontColor=#333333;strokeWidth=0;fontStyle=1;" parent="1" vertex="1">
          <mxGeometry x="440" y="840" width="130" height="40" as="geometry" />
        </mxCell>
        <mxCell id="7bqAnTobCl2Co9yz6yof-69" value="CRUD" style="ellipse;whiteSpace=wrap;html=1;fontSize=10;fillColor=#f5f5f5;fontColor=#333333;strokeWidth=0;fontStyle=1;" parent="1" vertex="1">
          <mxGeometry x="570" y="780" width="130" height="40" as="geometry" />
        </mxCell>
        <mxCell id="HeFsyeJPPzmemS84JjWQ-96" style="edgeStyle=none;shape=connector;rounded=0;orthogonalLoop=1;jettySize=auto;html=1;exitX=1;exitY=0;exitDx=0;exitDy=0;entryX=0;entryY=0.5;entryDx=0;entryDy=0;dashed=1;labelBackgroundColor=default;strokeColor=default;align=center;verticalAlign=middle;fontFamily=Helvetica;fontSize=9;fontColor=#7A7A7A;endArrow=block;endFill=1;" parent="1" source="7bqAnTobCl2Co9yz6yof-70" target="7bqAnTobCl2Co9yz6yof-71" edge="1">
          <mxGeometry relative="1" as="geometry" />
        </mxCell>
        <mxCell id="HeFsyeJPPzmemS84JjWQ-99" value="&amp;lt;&amp;lt;include&amp;gt;&amp;gt;" style="edgeLabel;html=1;align=center;verticalAlign=middle;resizable=0;points=[];fontSize=9;fontFamily=Helvetica;fontColor=#7A7A7A;" parent="HeFsyeJPPzmemS84JjWQ-96" vertex="1" connectable="0">
          <mxGeometry x="-0.1814" y="1" relative="1" as="geometry">
            <mxPoint as="offset" />
          </mxGeometry>
        </mxCell>
        <mxCell id="HeFsyeJPPzmemS84JjWQ-97" style="edgeStyle=none;shape=connector;rounded=0;orthogonalLoop=1;jettySize=auto;html=1;exitX=1;exitY=0.5;exitDx=0;exitDy=0;entryX=0;entryY=0.5;entryDx=0;entryDy=0;dashed=1;labelBackgroundColor=default;strokeColor=default;align=center;verticalAlign=middle;fontFamily=Helvetica;fontSize=9;fontColor=#7A7A7A;endArrow=block;endFill=1;" parent="1" source="7bqAnTobCl2Co9yz6yof-70" target="7bqAnTobCl2Co9yz6yof-72" edge="1">
          <mxGeometry relative="1" as="geometry" />
        </mxCell>
        <mxCell id="HeFsyeJPPzmemS84JjWQ-100" value="&amp;lt;&amp;lt;include&amp;gt;&amp;gt;" style="edgeLabel;html=1;align=center;verticalAlign=middle;resizable=0;points=[];fontSize=9;fontFamily=Helvetica;fontColor=#7A7A7A;" parent="HeFsyeJPPzmemS84JjWQ-97" vertex="1" connectable="0">
          <mxGeometry x="-0.1231" y="1" relative="1" as="geometry">
            <mxPoint as="offset" />
          </mxGeometry>
        </mxCell>
        <mxCell id="7bqAnTobCl2Co9yz6yof-70" value="Attributes" style="ellipse;whiteSpace=wrap;html=1;fontSize=10;fillColor=#f5f5f5;fontColor=#333333;strokeWidth=0;fontStyle=1;" parent="1" vertex="1">
          <mxGeometry x="795" y="490" width="130" height="40" as="geometry" />
        </mxCell>
        <mxCell id="7bqAnTobCl2Co9yz6yof-71" value="Property" style="ellipse;whiteSpace=wrap;html=1;fontSize=10;fillColor=#f5f5f5;fontColor=#333333;strokeWidth=0;fontStyle=1;" parent="1" vertex="1">
          <mxGeometry x="970" y="440" width="130" height="40" as="geometry" />
        </mxCell>
        <mxCell id="7bqAnTobCl2Co9yz6yof-72" value="Variation" style="ellipse;whiteSpace=wrap;html=1;fontSize=10;fillColor=#f5f5f5;fontColor=#333333;strokeWidth=0;fontStyle=1;" parent="1" vertex="1">
          <mxGeometry x="1000" y="490" width="130" height="40" as="geometry" />
        </mxCell>
        <mxCell id="HeFsyeJPPzmemS84JjWQ-122" style="edgeStyle=none;shape=connector;rounded=0;orthogonalLoop=1;jettySize=auto;html=1;exitX=1;exitY=0.5;exitDx=0;exitDy=0;entryX=0;entryY=0.5;entryDx=0;entryDy=0;dashed=1;labelBackgroundColor=default;strokeColor=default;align=center;verticalAlign=middle;fontFamily=Helvetica;fontSize=9;fontColor=#7A7A7A;endArrow=block;endFill=1;" parent="1" source="7bqAnTobCl2Co9yz6yof-78" target="7bqAnTobCl2Co9yz6yof-79" edge="1">
          <mxGeometry relative="1" as="geometry" />
        </mxCell>
        <mxCell id="HeFsyeJPPzmemS84JjWQ-125" value="&amp;lt;&amp;lt;include&amp;gt;&amp;gt;" style="edgeLabel;html=1;align=center;verticalAlign=middle;resizable=0;points=[];fontSize=9;fontFamily=Helvetica;fontColor=#7A7A7A;" parent="HeFsyeJPPzmemS84JjWQ-122" vertex="1" connectable="0">
          <mxGeometry x="0.018" relative="1" as="geometry">
            <mxPoint as="offset" />
          </mxGeometry>
        </mxCell>
        <mxCell id="7bqAnTobCl2Co9yz6yof-78" value="Archive management" style="ellipse;whiteSpace=wrap;html=1;fontSize=10;fillColor=#f5f5f5;fontColor=#333333;strokeWidth=0;fontStyle=1;" parent="1" vertex="1">
          <mxGeometry x="650" y="840" width="130" height="40" as="geometry" />
        </mxCell>
        <mxCell id="7bqAnTobCl2Co9yz6yof-79" value="Soft delete" style="ellipse;whiteSpace=wrap;html=1;fontSize=10;fillColor=#f5f5f5;fontColor=#333333;strokeWidth=0;fontStyle=1;" parent="1" vertex="1">
          <mxGeometry x="850" y="840" width="130" height="40" as="geometry" />
        </mxCell>
        <mxCell id="7bqAnTobCl2Co9yz6yof-82" value="Attribute linking" style="ellipse;whiteSpace=wrap;html=1;fontSize=10;fillColor=#f5f5f5;fontColor=#333333;strokeWidth=0;fontStyle=1;" parent="1" vertex="1">
          <mxGeometry x="580" y="900" width="130" height="40" as="geometry" />
        </mxCell>
        <mxCell id="HeFsyeJPPzmemS84JjWQ-127" style="edgeStyle=none;shape=connector;rounded=0;orthogonalLoop=1;jettySize=auto;html=1;entryX=0.5;entryY=1;entryDx=0;entryDy=0;dashed=1;labelBackgroundColor=default;strokeColor=default;align=center;verticalAlign=middle;fontFamily=Helvetica;fontSize=9;fontColor=#7A7A7A;endArrow=block;endFill=1;" parent="1" source="7bqAnTobCl2Co9yz6yof-86" target="7bqAnTobCl2Co9yz6yof-88" edge="1">
          <mxGeometry relative="1" as="geometry" />
        </mxCell>
        <mxCell id="HeFsyeJPPzmemS84JjWQ-137" value="&amp;lt;&amp;lt;include&amp;gt;&amp;gt;" style="edgeLabel;html=1;align=center;verticalAlign=middle;resizable=0;points=[];fontSize=9;fontFamily=Helvetica;fontColor=#7A7A7A;" parent="HeFsyeJPPzmemS84JjWQ-127" vertex="1" connectable="0">
          <mxGeometry x="0.019" y="-2" relative="1" as="geometry">
            <mxPoint y="-1" as="offset" />
          </mxGeometry>
        </mxCell>
        <mxCell id="HeFsyeJPPzmemS84JjWQ-128" style="edgeStyle=none;shape=connector;rounded=0;orthogonalLoop=1;jettySize=auto;html=1;exitX=1;exitY=0;exitDx=0;exitDy=0;entryX=0;entryY=1;entryDx=0;entryDy=0;dashed=1;labelBackgroundColor=default;strokeColor=default;align=center;verticalAlign=middle;fontFamily=Helvetica;fontSize=9;fontColor=#7A7A7A;endArrow=block;endFill=1;" parent="1" source="7bqAnTobCl2Co9yz6yof-86" target="7bqAnTobCl2Co9yz6yof-89" edge="1">
          <mxGeometry relative="1" as="geometry" />
        </mxCell>
        <mxCell id="HeFsyeJPPzmemS84JjWQ-138" value="&amp;lt;&amp;lt;include&amp;gt;&amp;gt;" style="edgeLabel;html=1;align=center;verticalAlign=middle;resizable=0;points=[];fontSize=9;fontFamily=Helvetica;fontColor=#7A7A7A;" parent="HeFsyeJPPzmemS84JjWQ-128" vertex="1" connectable="0">
          <mxGeometry x="-0.0543" y="2" relative="1" as="geometry">
            <mxPoint as="offset" />
          </mxGeometry>
        </mxCell>
        <mxCell id="HeFsyeJPPzmemS84JjWQ-129" style="edgeStyle=none;shape=connector;rounded=0;orthogonalLoop=1;jettySize=auto;html=1;exitX=1;exitY=0.5;exitDx=0;exitDy=0;entryX=0;entryY=0.5;entryDx=0;entryDy=0;dashed=1;labelBackgroundColor=default;strokeColor=default;align=center;verticalAlign=middle;fontFamily=Helvetica;fontSize=9;fontColor=#7A7A7A;endArrow=block;endFill=1;" parent="1" source="7bqAnTobCl2Co9yz6yof-86" target="7bqAnTobCl2Co9yz6yof-90" edge="1">
          <mxGeometry relative="1" as="geometry" />
        </mxCell>
        <mxCell id="HeFsyeJPPzmemS84JjWQ-139" value="&amp;lt;&amp;lt;include&amp;gt;&amp;gt;" style="edgeLabel;html=1;align=center;verticalAlign=middle;resizable=0;points=[];fontSize=9;fontFamily=Helvetica;fontColor=#7A7A7A;" parent="HeFsyeJPPzmemS84JjWQ-129" vertex="1" connectable="0">
          <mxGeometry x="0.0349" y="-5" relative="1" as="geometry">
            <mxPoint x="-1" y="-5" as="offset" />
          </mxGeometry>
        </mxCell>
        <mxCell id="HeFsyeJPPzmemS84JjWQ-145" style="edgeStyle=none;shape=connector;rounded=0;orthogonalLoop=1;jettySize=auto;html=1;exitX=1;exitY=1;exitDx=0;exitDy=0;entryX=0;entryY=0;entryDx=0;entryDy=0;dashed=1;labelBackgroundColor=default;strokeColor=default;align=center;verticalAlign=middle;fontFamily=Helvetica;fontSize=9;fontColor=#7A7A7A;endArrow=block;endFill=1;" parent="1" source="7bqAnTobCl2Co9yz6yof-86" target="7bqAnTobCl2Co9yz6yof-108" edge="1">
          <mxGeometry relative="1" as="geometry" />
        </mxCell>
        <mxCell id="HeFsyeJPPzmemS84JjWQ-146" value="&amp;lt;&amp;lt;include&amp;gt;&amp;gt;" style="edgeLabel;html=1;align=center;verticalAlign=middle;resizable=0;points=[];fontSize=9;fontFamily=Helvetica;fontColor=#7A7A7A;" parent="HeFsyeJPPzmemS84JjWQ-145" vertex="1" connectable="0">
          <mxGeometry x="-0.0565" y="2" relative="1" as="geometry">
            <mxPoint as="offset" />
          </mxGeometry>
        </mxCell>
        <mxCell id="7bqAnTobCl2Co9yz6yof-86" value="Review management" style="ellipse;whiteSpace=wrap;html=1;fillColor=#dae8fc;labelBackgroundColor=none;strokeWidth=0;fontStyle=1;" parent="1" vertex="1">
          <mxGeometry x="240" y="1030" width="130" height="40" as="geometry" />
        </mxCell>
        <mxCell id="7bqAnTobCl2Co9yz6yof-88" value="Product list view" style="ellipse;whiteSpace=wrap;html=1;fontSize=10;fillColor=#f5f5f5;fontColor=#333333;strokeWidth=0;fontStyle=1;" parent="1" vertex="1">
          <mxGeometry x="240" y="930" width="130" height="40" as="geometry" />
        </mxCell>
        <mxCell id="7bqAnTobCl2Co9yz6yof-89" value="Review list view" style="ellipse;whiteSpace=wrap;html=1;fontSize=10;fillColor=#f5f5f5;fontColor=#333333;strokeWidth=0;fontStyle=1;" parent="1" vertex="1">
          <mxGeometry x="410" y="950" width="130" height="40" as="geometry" />
        </mxCell>
        <mxCell id="HeFsyeJPPzmemS84JjWQ-130" style="edgeStyle=none;shape=connector;rounded=0;orthogonalLoop=1;jettySize=auto;html=1;exitX=1;exitY=0.5;exitDx=0;exitDy=0;entryX=0;entryY=0.5;entryDx=0;entryDy=0;dashed=1;labelBackgroundColor=default;strokeColor=default;align=center;verticalAlign=middle;fontFamily=Helvetica;fontSize=9;fontColor=#7A7A7A;endArrow=block;endFill=1;" parent="1" source="7bqAnTobCl2Co9yz6yof-90" target="7bqAnTobCl2Co9yz6yof-95" edge="1">
          <mxGeometry relative="1" as="geometry" />
        </mxCell>
        <mxCell id="HeFsyeJPPzmemS84JjWQ-140" value="&amp;lt;&amp;lt;include&amp;gt;&amp;gt;" style="edgeLabel;html=1;align=center;verticalAlign=middle;resizable=0;points=[];fontSize=9;fontFamily=Helvetica;fontColor=#7A7A7A;" parent="HeFsyeJPPzmemS84JjWQ-130" vertex="1" connectable="0">
          <mxGeometry x="-0.1086" y="1" relative="1" as="geometry">
            <mxPoint x="-1" as="offset" />
          </mxGeometry>
        </mxCell>
        <mxCell id="7bqAnTobCl2Co9yz6yof-90" value="Aggregates" style="ellipse;whiteSpace=wrap;html=1;fillColor=#fff2cc;strokeColor=default;fontColor=#CC6600;labelBackgroundColor=none;strokeWidth=0;" parent="1" vertex="1">
          <mxGeometry x="440" y="1030" width="130" height="40" as="geometry" />
        </mxCell>
        <mxCell id="HeFsyeJPPzmemS84JjWQ-133" style="edgeStyle=none;shape=connector;rounded=0;orthogonalLoop=1;jettySize=auto;html=1;exitX=1;exitY=0;exitDx=0;exitDy=0;entryX=0;entryY=1;entryDx=0;entryDy=0;dashed=1;labelBackgroundColor=default;strokeColor=default;align=center;verticalAlign=middle;fontFamily=Helvetica;fontSize=9;fontColor=#7A7A7A;endArrow=block;endFill=1;" parent="1" source="7bqAnTobCl2Co9yz6yof-91" target="7bqAnTobCl2Co9yz6yof-92" edge="1">
          <mxGeometry relative="1" as="geometry" />
        </mxCell>
        <mxCell id="HeFsyeJPPzmemS84JjWQ-142" value="&amp;lt;&amp;lt;include&amp;gt;&amp;gt;" style="edgeLabel;html=1;align=center;verticalAlign=middle;resizable=0;points=[];fontSize=9;fontFamily=Helvetica;fontColor=#7A7A7A;" parent="HeFsyeJPPzmemS84JjWQ-133" vertex="1" connectable="0">
          <mxGeometry x="-0.1254" y="2" relative="1" as="geometry">
            <mxPoint as="offset" />
          </mxGeometry>
        </mxCell>
        <mxCell id="HeFsyeJPPzmemS84JjWQ-134" style="edgeStyle=none;shape=connector;rounded=0;orthogonalLoop=1;jettySize=auto;html=1;exitX=1;exitY=0.5;exitDx=0;exitDy=0;entryX=0;entryY=0.5;entryDx=0;entryDy=0;dashed=1;labelBackgroundColor=default;strokeColor=default;align=center;verticalAlign=middle;fontFamily=Helvetica;fontSize=9;fontColor=#7A7A7A;endArrow=block;endFill=1;" parent="1" source="7bqAnTobCl2Co9yz6yof-91" target="7bqAnTobCl2Co9yz6yof-93" edge="1">
          <mxGeometry relative="1" as="geometry" />
        </mxCell>
        <mxCell id="HeFsyeJPPzmemS84JjWQ-143" value="&amp;lt;&amp;lt;include&amp;gt;&amp;gt;" style="edgeLabel;html=1;align=center;verticalAlign=middle;resizable=0;points=[];fontSize=9;fontFamily=Helvetica;fontColor=#7A7A7A;" parent="HeFsyeJPPzmemS84JjWQ-134" vertex="1" connectable="0">
          <mxGeometry x="-0.16" relative="1" as="geometry">
            <mxPoint as="offset" />
          </mxGeometry>
        </mxCell>
        <mxCell id="HeFsyeJPPzmemS84JjWQ-136" style="edgeStyle=none;shape=connector;rounded=0;orthogonalLoop=1;jettySize=auto;html=1;exitX=1;exitY=1;exitDx=0;exitDy=0;entryX=0;entryY=0;entryDx=0;entryDy=0;dashed=1;labelBackgroundColor=default;strokeColor=default;align=center;verticalAlign=middle;fontFamily=Helvetica;fontSize=9;fontColor=#7A7A7A;endArrow=block;endFill=1;" parent="1" source="7bqAnTobCl2Co9yz6yof-91" target="7bqAnTobCl2Co9yz6yof-94" edge="1">
          <mxGeometry relative="1" as="geometry" />
        </mxCell>
        <mxCell id="HeFsyeJPPzmemS84JjWQ-144" value="&amp;lt;&amp;lt;include&amp;gt;&amp;gt;" style="edgeLabel;html=1;align=center;verticalAlign=middle;resizable=0;points=[];fontSize=9;fontFamily=Helvetica;fontColor=#7A7A7A;" parent="HeFsyeJPPzmemS84JjWQ-136" vertex="1" connectable="0">
          <mxGeometry x="-0.2816" y="-1" relative="1" as="geometry">
            <mxPoint as="offset" />
          </mxGeometry>
        </mxCell>
        <mxCell id="7bqAnTobCl2Co9yz6yof-91" value="Top 3" style="ellipse;whiteSpace=wrap;html=1;fillColor=#fff2cc;strokeColor=default;fontColor=#CC6600;labelBackgroundColor=none;strokeWidth=0;" parent="1" vertex="1">
          <mxGeometry x="850" y="1030" width="130" height="40" as="geometry" />
        </mxCell>
        <mxCell id="7bqAnTobCl2Co9yz6yof-92" value="Most reviewed" style="ellipse;whiteSpace=wrap;html=1;fillColor=#fff2cc;strokeColor=default;fontColor=#CC6600;labelBackgroundColor=none;strokeWidth=0;" parent="1" vertex="1">
          <mxGeometry x="970" y="960" width="130" height="40" as="geometry" />
        </mxCell>
        <mxCell id="7bqAnTobCl2Co9yz6yof-93" value="Highest rating" style="ellipse;whiteSpace=wrap;html=1;fillColor=#fff2cc;strokeColor=default;fontColor=#CC6600;labelBackgroundColor=none;strokeWidth=0;" parent="1" vertex="1">
          <mxGeometry x="1030" y="1030" width="130" height="40" as="geometry" />
        </mxCell>
        <mxCell id="7bqAnTobCl2Co9yz6yof-94" value="Lowest rating" style="ellipse;whiteSpace=wrap;html=1;fillColor=#fff2cc;strokeColor=default;fontColor=#CC6600;labelBackgroundColor=none;strokeWidth=0;" parent="1" vertex="1">
          <mxGeometry x="980" y="1090" width="130" height="40" as="geometry" />
        </mxCell>
        <mxCell id="HeFsyeJPPzmemS84JjWQ-131" style="edgeStyle=none;shape=connector;rounded=0;orthogonalLoop=1;jettySize=auto;html=1;exitX=1;exitY=0.5;exitDx=0;exitDy=0;entryX=0;entryY=0.5;entryDx=0;entryDy=0;dashed=1;labelBackgroundColor=default;strokeColor=default;align=center;verticalAlign=middle;fontFamily=Helvetica;fontSize=9;fontColor=#7A7A7A;endArrow=block;endFill=1;" parent="1" source="7bqAnTobCl2Co9yz6yof-95" target="7bqAnTobCl2Co9yz6yof-91" edge="1">
          <mxGeometry relative="1" as="geometry" />
        </mxCell>
        <mxCell id="HeFsyeJPPzmemS84JjWQ-141" value="&amp;lt;&amp;lt;include&amp;gt;&amp;gt;" style="edgeLabel;html=1;align=center;verticalAlign=middle;resizable=0;points=[];fontSize=9;fontFamily=Helvetica;fontColor=#7A7A7A;" parent="HeFsyeJPPzmemS84JjWQ-131" vertex="1" connectable="0">
          <mxGeometry x="-0.1657" y="-1" relative="1" as="geometry">
            <mxPoint x="-1" as="offset" />
          </mxGeometry>
        </mxCell>
        <mxCell id="7bqAnTobCl2Co9yz6yof-95" value="Range over time" style="ellipse;whiteSpace=wrap;html=1;fillColor=#fff2cc;strokeColor=default;fontColor=#CC6600;labelBackgroundColor=none;strokeWidth=0;" parent="1" vertex="1">
          <mxGeometry x="650" y="1030" width="130" height="40" as="geometry" />
        </mxCell>
        <mxCell id="HeFsyeJPPzmemS84JjWQ-147" style="edgeStyle=none;shape=connector;rounded=0;orthogonalLoop=1;jettySize=auto;html=1;exitX=1;exitY=0.5;exitDx=0;exitDy=0;entryX=0;entryY=0.5;entryDx=0;entryDy=0;dashed=1;labelBackgroundColor=default;strokeColor=default;align=center;verticalAlign=middle;fontFamily=Helvetica;fontSize=9;fontColor=#7A7A7A;endArrow=block;endFill=1;" parent="1" source="7bqAnTobCl2Co9yz6yof-104" target="7bqAnTobCl2Co9yz6yof-106" edge="1">
          <mxGeometry relative="1" as="geometry" />
        </mxCell>
        <mxCell id="HeFsyeJPPzmemS84JjWQ-148" value="&amp;lt;&amp;lt;include&amp;gt;&amp;gt;" style="edgeLabel;html=1;align=center;verticalAlign=middle;resizable=0;points=[];fontSize=9;fontFamily=Helvetica;fontColor=#7A7A7A;" parent="HeFsyeJPPzmemS84JjWQ-147" vertex="1" connectable="0">
          <mxGeometry x="-0.0133" relative="1" as="geometry">
            <mxPoint as="offset" />
          </mxGeometry>
        </mxCell>
        <mxCell id="7bqAnTobCl2Co9yz6yof-104" value="Inventory management" style="ellipse;whiteSpace=wrap;html=1;fillColor=#dae8fc;labelBackgroundColor=none;strokeWidth=0;fontStyle=1;" parent="1" vertex="1">
          <mxGeometry x="260" y="1194" width="130" height="40" as="geometry" />
        </mxCell>
        <mxCell id="7bqAnTobCl2Co9yz6yof-106" value="CRUD" style="ellipse;whiteSpace=wrap;html=1;fontSize=10;fillColor=#f5f5f5;fontColor=#333333;strokeWidth=0;fontStyle=1;" parent="1" vertex="1">
          <mxGeometry x="490" y="1194" width="130" height="40" as="geometry" />
        </mxCell>
        <mxCell id="7bqAnTobCl2Co9yz6yof-108" value="Read, Delete" style="ellipse;whiteSpace=wrap;html=1;fontSize=10;fillColor=#f5f5f5;fontColor=#333333;strokeWidth=0;fontStyle=1;" parent="1" vertex="1">
          <mxGeometry x="410" y="1110" width="130" height="40" as="geometry" />
        </mxCell>
        <mxCell id="HeFsyeJPPzmemS84JjWQ-70" value="&lt;span&gt;Primary&lt;/span&gt;" style="ellipse;whiteSpace=wrap;html=1;fillColor=#dae8fc;strokeColor=default;strokeWidth=0;fontStyle=1" parent="1" vertex="1">
          <mxGeometry x="35" y="30" width="130" height="40" as="geometry" />
        </mxCell>
        <mxCell id="HeFsyeJPPzmemS84JjWQ-71" value="&lt;span style=&quot;font-size: 10px;&quot;&gt;Secondary&lt;/span&gt;" style="ellipse;whiteSpace=wrap;html=1;fillColor=#f5f5f5;strokeColor=default;strokeWidth=0;fontSize=10;fontStyle=1;fontColor=#333333;" parent="1" vertex="1">
          <mxGeometry x="185" y="30" width="130" height="40" as="geometry" />
        </mxCell>
        <mxCell id="HeFsyeJPPzmemS84JjWQ-72" value="&lt;font style=&quot;font-size: 10px;&quot;&gt;&lt;b&gt;Not MVP&lt;/b&gt;&lt;/font&gt;" style="ellipse;whiteSpace=wrap;html=1;fillColor=#fff2cc;strokeColor=default;fontColor=#CC6600;labelBackgroundColor=none;strokeWidth=0;" parent="1" vertex="1">
          <mxGeometry x="340" y="30" width="130" height="40" as="geometry" />
        </mxCell>
        <mxCell id="HeFsyeJPPzmemS84JjWQ-74" value="&lt;b&gt;&lt;font color=&quot;#292929&quot; style=&quot;font-size: 24px;&quot;&gt;Shop Management Sytem&lt;/font&gt;&lt;/b&gt;" style="text;html=1;align=center;verticalAlign=middle;resizable=0;points=[];autosize=1;strokeColor=none;fillColor=none;fontSize=9;fontFamily=Helvetica;fontColor=#7A7A7A;" parent="1" vertex="1">
          <mxGeometry x="530" y="100" width="320" height="40" as="geometry" />
        </mxCell>
        <mxCell id="HeFsyeJPPzmemS84JjWQ-82" style="edgeStyle=none;shape=connector;rounded=0;orthogonalLoop=1;jettySize=auto;html=1;exitX=0.5;exitY=1;exitDx=0;exitDy=0;dashed=1;labelBackgroundColor=default;strokeColor=default;align=center;verticalAlign=middle;fontFamily=Helvetica;fontSize=9;fontColor=#7A7A7A;endArrow=block;endFill=1;" parent="1" source="7bqAnTobCl2Co9yz6yof-41" target="7bqAnTobCl2Co9yz6yof-41" edge="1">
          <mxGeometry relative="1" as="geometry" />
        </mxCell>
        <mxCell id="2nWl9ekcpLMXEI2eWGUZ-5" value="Fields" style="ellipse;whiteSpace=wrap;html=1;fontSize=10;fillColor=#f5f5f5;fontColor=#333333;strokeWidth=0;fontStyle=1;" parent="1" vertex="1">
          <mxGeometry x="980" y="540" width="130" height="40" as="geometry" />
        </mxCell>
        <mxCell id="2nWl9ekcpLMXEI2eWGUZ-7" style="edgeStyle=none;shape=connector;rounded=0;orthogonalLoop=1;jettySize=auto;html=1;exitX=1;exitY=1;exitDx=0;exitDy=0;entryX=0;entryY=0.5;entryDx=0;entryDy=0;dashed=1;labelBackgroundColor=default;strokeColor=default;align=center;verticalAlign=middle;fontFamily=Helvetica;fontSize=9;fontColor=#7A7A7A;endArrow=block;endFill=1;" parent="1" source="7bqAnTobCl2Co9yz6yof-70" target="2nWl9ekcpLMXEI2eWGUZ-5" edge="1">
          <mxGeometry relative="1" as="geometry">
            <mxPoint x="935" y="520" as="sourcePoint" />
            <mxPoint x="1010" y="520" as="targetPoint" />
          </mxGeometry>
        </mxCell>
        <mxCell id="2nWl9ekcpLMXEI2eWGUZ-8" value="&amp;lt;&amp;lt;include&amp;gt;&amp;gt;" style="edgeLabel;html=1;align=center;verticalAlign=middle;resizable=0;points=[];fontSize=9;fontFamily=Helvetica;fontColor=#7A7A7A;" parent="2nWl9ekcpLMXEI2eWGUZ-7" vertex="1" connectable="0">
          <mxGeometry x="-0.1231" y="1" relative="1" as="geometry">
            <mxPoint as="offset" />
          </mxGeometry>
        </mxCell>
        <mxCell id="2nWl9ekcpLMXEI2eWGUZ-10" value="Delivery Note" style="ellipse;whiteSpace=wrap;html=1;fontSize=10;fillColor=#f5f5f5;fontColor=#333333;strokeWidth=0;fontStyle=1;" parent="1" vertex="1">
          <mxGeometry x="490" y="1240" width="130" height="40" as="geometry" />
        </mxCell>
        <mxCell id="2nWl9ekcpLMXEI2eWGUZ-11" style="edgeStyle=none;shape=connector;rounded=0;orthogonalLoop=1;jettySize=auto;html=1;exitX=1;exitY=1;exitDx=0;exitDy=0;entryX=0;entryY=0.5;entryDx=0;entryDy=0;dashed=1;labelBackgroundColor=default;strokeColor=default;align=center;verticalAlign=middle;fontFamily=Helvetica;fontSize=9;fontColor=#7A7A7A;endArrow=block;endFill=1;" parent="1" source="7bqAnTobCl2Co9yz6yof-104" target="2nWl9ekcpLMXEI2eWGUZ-10" edge="1">
          <mxGeometry relative="1" as="geometry">
            <mxPoint x="375" y="1234" as="sourcePoint" />
            <mxPoint x="475" y="1234" as="targetPoint" />
          </mxGeometry>
        </mxCell>
        <mxCell id="2nWl9ekcpLMXEI2eWGUZ-12" value="&amp;lt;&amp;lt;include&amp;gt;&amp;gt;" style="edgeLabel;html=1;align=center;verticalAlign=middle;resizable=0;points=[];fontSize=9;fontFamily=Helvetica;fontColor=#7A7A7A;" parent="2nWl9ekcpLMXEI2eWGUZ-11" vertex="1" connectable="0">
          <mxGeometry x="-0.0133" relative="1" as="geometry">
            <mxPoint as="offset" />
          </mxGeometry>
        </mxCell>
      </root>
    </mxGraphModel>
  </diagram>
  <diagram id="o4ABTZJXeHQR-0-UGdWI" name="[USECASE] Webshop">
    <mxGraphModel dx="1434" dy="750" grid="1" gridSize="10" guides="1" tooltips="1" connect="1" arrows="1" fold="1" page="1" pageScale="1" pageWidth="850" pageHeight="1100" math="0" shadow="0">
      <root>
        <mxCell id="0" />
        <mxCell id="1" parent="0" />
      </root>
    </mxGraphModel>
  </diagram>
  <diagram id="oWoKQ5eRfM10xfI91AsQ" name="[STATE] Order">
    <mxGraphModel dx="1687" dy="1024" grid="1" gridSize="10" guides="1" tooltips="1" connect="1" arrows="1" fold="1" page="1" pageScale="1" pageWidth="850" pageHeight="1100" math="0" shadow="0">
      <root>
        <mxCell id="0" />
        <mxCell id="1" parent="0" />
        <mxCell id="7EMFtu5dMHOGTsIcaVN--59" value="" style="rounded=1;whiteSpace=wrap;html=1;labelBackgroundColor=none;strokeColor=default;align=center;verticalAlign=middle;fontFamily=Helvetica;fontSize=9;fontColor=#7A7A7A;fillColor=default;gradientColor=none;" parent="1" vertex="1">
          <mxGeometry x="150" y="250" width="550" height="810" as="geometry" />
        </mxCell>
        <mxCell id="7EMFtu5dMHOGTsIcaVN--11" value="&lt;font color=&quot;#7a7a7a&quot;&gt;&lt;span style=&quot;background-color: rgb(255, 255, 255);&quot;&gt;verify&lt;/span&gt;&lt;/font&gt;" style="edgeStyle=none;shape=connector;rounded=0;orthogonalLoop=1;jettySize=auto;html=1;exitX=0.5;exitY=1;exitDx=0;exitDy=0;entryX=0.5;entryY=0;entryDx=0;entryDy=0;labelBackgroundColor=none;strokeColor=default;align=center;verticalAlign=middle;fontFamily=Helvetica;fontSize=9;fontColor=#000000;endArrow=open;endFill=0;fontStyle=1" parent="1" source="7EMFtu5dMHOGTsIcaVN--1" target="7EMFtu5dMHOGTsIcaVN--10" edge="1">
          <mxGeometry relative="1" as="geometry">
            <mxPoint as="offset" />
          </mxGeometry>
        </mxCell>
        <mxCell id="7EMFtu5dMHOGTsIcaVN--43" value="payment fail" style="edgeStyle=orthogonalEdgeStyle;shape=connector;rounded=0;orthogonalLoop=1;jettySize=auto;html=1;exitX=1;exitY=0.75;exitDx=0;exitDy=0;entryX=0;entryY=0.75;entryDx=0;entryDy=0;labelBackgroundColor=default;strokeColor=default;align=center;verticalAlign=middle;fontFamily=Helvetica;fontSize=9;fontColor=#7A7A7A;endArrow=open;endFill=0;fontStyle=1;" parent="1" source="7EMFtu5dMHOGTsIcaVN--1" target="7EMFtu5dMHOGTsIcaVN--40" edge="1">
          <mxGeometry relative="1" as="geometry">
            <mxPoint as="offset" />
          </mxGeometry>
        </mxCell>
        <mxCell id="7EMFtu5dMHOGTsIcaVN--1" value="Pending" style="rounded=1;whiteSpace=wrap;html=1;labelBackgroundColor=none;align=center;verticalAlign=middle;fontFamily=Helvetica;fontSize=9;fontColor=#000000;fillColor=none;gradientColor=none;fontStyle=1" parent="1" vertex="1">
          <mxGeometry x="210" y="430" width="70" height="30" as="geometry" />
        </mxCell>
        <mxCell id="7EMFtu5dMHOGTsIcaVN--2" value="&lt;div style=&quot;text-align: center;&quot;&gt;&lt;font size=&quot;1&quot; face=&quot;-apple-system, BlinkMacSystemFont, Segoe UI, Roboto, Noto Sans, Ubuntu, Droid Sans, Helvetica Neue, sans-serif&quot; color=&quot;#172b4d&quot;&gt;&lt;b style=&quot;font-size: 14px;&quot;&gt;MVP&lt;/b&gt;&lt;/font&gt;&lt;/div&gt;&lt;ol style=&quot;list-style: none; margin: 14px 0px; padding: 0px 0px 0px 24px; color: rgb(23, 43, 77); font-family: -apple-system, BlinkMacSystemFont, &amp;quot;Segoe UI&amp;quot;, Roboto, &amp;quot;Noto Sans&amp;quot;, Ubuntu, &amp;quot;Droid Sans&amp;quot;, &amp;quot;Helvetica Neue&amp;quot;, sans-serif; font-style: normal; font-variant-ligatures: normal; font-variant-caps: normal; letter-spacing: normal; orphans: 2; text-align: start; text-indent: 0px; text-transform: none; widows: 2; word-spacing: 0px; -webkit-text-stroke-width: 0px; text-decoration-thickness: initial; text-decoration-style: initial; text-decoration-color: initial; font-size: 10px;&quot;&gt;&lt;li style=&quot;font-weight: 400; line-height: 24px; margin: 0px; list-style: decimal; font-size: 10px;&quot;&gt;&lt;font style=&quot;font-size: 10px;&quot;&gt;&lt;strong style=&quot;font-weight: 700; font-size: 10px;&quot;&gt;Pending&lt;/strong&gt;: Order received but not yet processed.&lt;/font&gt;&lt;/li&gt;&lt;li style=&quot;line-height: 24px; margin: 0px; list-style: decimal; font-size: 10px;&quot;&gt;&lt;font style=&quot;font-size: 10px;&quot;&gt;&lt;b&gt;On hold: &lt;/b&gt;Payment was not succesful, customer can retry payment or cancel.&lt;/font&gt;&lt;/li&gt;&lt;li style=&quot;line-height: 24px; margin: 0px; list-style: decimal; font-size: 10px;&quot;&gt;&lt;font style=&quot;font-size: 10px;&quot;&gt;&lt;b&gt;Cancelled:&amp;nbsp;&lt;/b&gt;&lt;/font&gt;&amp;nbsp;Order has been cancelled by either the customer or the shop&lt;/li&gt;&lt;li style=&quot;line-height: 24px; margin: 0px; list-style: decimal; font-size: 10px;&quot;&gt;&lt;font style=&quot;font-size: 10px;&quot;&gt;&lt;b&gt;Payment Confirmed:&amp;nbsp;&lt;/b&gt;&amp;nbsp;Successful payment&lt;/font&gt;&lt;/li&gt;&lt;li style=&quot;line-height: 24px; margin: 0px; list-style: decimal; font-size: 10px;&quot;&gt;&lt;font style=&quot;font-size: 10px;&quot;&gt;&lt;b&gt;Processing: &lt;/b&gt;Shop has started to prepare the packages.&lt;/font&gt;&lt;/li&gt;&lt;li style=&quot;font-weight: 400; line-height: 24px; margin: 0px; list-style: decimal; font-size: 10px;&quot;&gt;&lt;font style=&quot;font-size: 10px;&quot;&gt;&lt;strong style=&quot;font-weight: 700; font-size: 10px;&quot;&gt;Shipped&lt;/strong&gt;: Order has left the warehouse and is in transit.&lt;/font&gt;&lt;/li&gt;&lt;li style=&quot;font-weight: 400; line-height: 24px; margin: 0px; list-style: decimal; font-size: 10px;&quot;&gt;&lt;font style=&quot;font-size: 10px;&quot;&gt;&lt;strong style=&quot;font-weight: 700; font-size: 10px;&quot;&gt;Completed&lt;/strong&gt;: Order has arrived at its destination.&lt;/font&gt;&lt;/li&gt;&lt;/ol&gt;" style="text;whiteSpace=wrap;html=1;fontSize=10;fontFamily=Helvetica;fontColor=#7A7A7A;" parent="1" vertex="1">
          <mxGeometry x="12.5" y="10" width="365" height="170" as="geometry" />
        </mxCell>
        <mxCell id="7EMFtu5dMHOGTsIcaVN--3" value="&lt;b&gt;&lt;font style=&quot;font-size: 30px;&quot;&gt;Order States&lt;/font&gt;&lt;/b&gt;" style="text;html=1;align=center;verticalAlign=middle;resizable=0;points=[];autosize=1;strokeColor=none;fillColor=none;fontSize=9;fontFamily=Helvetica;fontColor=#1C1C1C;" parent="1" vertex="1">
          <mxGeometry x="330" y="250" width="200" height="50" as="geometry" />
        </mxCell>
        <mxCell id="7EMFtu5dMHOGTsIcaVN--5" value="order" style="edgeStyle=none;shape=connector;rounded=0;orthogonalLoop=1;jettySize=auto;html=1;exitX=0.5;exitY=1;exitDx=0;exitDy=0;entryX=0.5;entryY=0;entryDx=0;entryDy=0;labelBackgroundColor=default;strokeColor=default;align=center;verticalAlign=middle;fontFamily=Helvetica;fontSize=9;fontColor=#7A7A7A;endArrow=open;endFill=0;fontStyle=1" parent="1" source="7EMFtu5dMHOGTsIcaVN--4" target="7EMFtu5dMHOGTsIcaVN--1" edge="1">
          <mxGeometry relative="1" as="geometry" />
        </mxCell>
        <mxCell id="7EMFtu5dMHOGTsIcaVN--4" value="&lt;span style=&quot;&quot;&gt;Initial&lt;br&gt;&lt;/span&gt;" style="ellipse;html=1;aspect=fixed;labelBackgroundColor=none;align=center;verticalAlign=bottom;fontFamily=Helvetica;fontSize=9;fontColor=#000000;fillColor=#000000;gradientColor=none;strokeColor=none;whiteSpace=wrap;labelPosition=center;verticalLabelPosition=top;fontStyle=1" parent="1" vertex="1">
          <mxGeometry x="235" y="330" width="20" height="20" as="geometry" />
        </mxCell>
        <mxCell id="G6DUn3PrahZ7DZmVtPV8-10" value="&lt;span style=&quot;color: rgb(122, 122, 122); font-family: Helvetica; font-size: 9px; font-style: normal; font-variant-ligatures: normal; font-variant-caps: normal; font-weight: 700; letter-spacing: normal; orphans: 2; text-align: center; text-indent: 0px; text-transform: none; widows: 2; word-spacing: 0px; -webkit-text-stroke-width: 0px; background-color: rgb(255, 255, 255); text-decoration-thickness: initial; text-decoration-style: initial; text-decoration-color: initial; float: none; display: inline !important;&quot;&gt;process&lt;/span&gt;" style="edgeStyle=none;shape=connector;rounded=0;orthogonalLoop=1;jettySize=auto;html=1;entryX=0.5;entryY=0;entryDx=0;entryDy=0;labelBackgroundColor=none;strokeColor=default;align=center;verticalAlign=middle;fontFamily=Helvetica;fontSize=9;fontColor=#000000;endArrow=open;endFill=0;" parent="1" source="7EMFtu5dMHOGTsIcaVN--10" target="G6DUn3PrahZ7DZmVtPV8-9" edge="1">
          <mxGeometry relative="1" as="geometry" />
        </mxCell>
        <mxCell id="7EMFtu5dMHOGTsIcaVN--10" value="Payment Confirmed" style="rounded=1;whiteSpace=wrap;html=1;labelBackgroundColor=none;align=center;verticalAlign=middle;fontFamily=Helvetica;fontSize=9;fontColor=#000000;fillColor=none;gradientColor=none;fontStyle=1" parent="1" vertex="1">
          <mxGeometry x="210" y="540" width="70" height="30" as="geometry" />
        </mxCell>
        <mxCell id="7EMFtu5dMHOGTsIcaVN--21" value="&lt;span style=&quot;color: rgb(122, 122, 122); font-family: Helvetica; font-size: 9px; font-style: normal; font-variant-ligatures: normal; font-variant-caps: normal; font-weight: 700; letter-spacing: normal; orphans: 2; text-align: center; text-indent: 0px; text-transform: none; widows: 2; word-spacing: 0px; -webkit-text-stroke-width: 0px; text-decoration-thickness: initial; text-decoration-style: initial; text-decoration-color: initial; float: none; display: inline !important;&quot;&gt;deliver&lt;/span&gt;" style="edgeStyle=none;shape=connector;rounded=0;orthogonalLoop=1;jettySize=auto;html=1;labelBackgroundColor=default;strokeColor=default;align=center;verticalAlign=middle;fontFamily=Helvetica;fontSize=9;fontColor=#000000;endArrow=open;endFill=0;exitX=0.5;exitY=1;exitDx=0;exitDy=0;entryX=0.5;entryY=0;entryDx=0;entryDy=0;" parent="1" source="7EMFtu5dMHOGTsIcaVN--17" target="7EMFtu5dMHOGTsIcaVN--20" edge="1">
          <mxGeometry relative="1" as="geometry" />
        </mxCell>
        <mxCell id="7EMFtu5dMHOGTsIcaVN--17" value="Shipped" style="rounded=1;whiteSpace=wrap;html=1;labelBackgroundColor=none;align=center;verticalAlign=middle;fontFamily=Helvetica;fontSize=9;fontColor=#000000;fillColor=none;gradientColor=none;fontStyle=1" parent="1" vertex="1">
          <mxGeometry x="210" y="760" width="70" height="30" as="geometry" />
        </mxCell>
        <mxCell id="7EMFtu5dMHOGTsIcaVN--46" value="&lt;span style=&quot;color: rgb(122, 122, 122); font-family: Helvetica; font-size: 9px; font-style: normal; font-variant-ligatures: normal; font-variant-caps: normal; font-weight: 700; letter-spacing: normal; orphans: 2; text-align: center; text-indent: 0px; text-transform: none; widows: 2; word-spacing: 0px; -webkit-text-stroke-width: 0px; background-color: rgb(255, 255, 255); text-decoration-thickness: initial; text-decoration-style: initial; text-decoration-color: initial; float: none; display: inline !important;&quot;&gt;ship&lt;/span&gt;" style="edgeStyle=orthogonalEdgeStyle;shape=connector;rounded=0;orthogonalLoop=1;jettySize=auto;html=1;exitX=0.5;exitY=0;exitDx=0;exitDy=0;labelBackgroundColor=default;strokeColor=default;align=center;verticalAlign=middle;fontFamily=Helvetica;fontSize=9;fontColor=#000000;endArrow=open;endFill=0;entryX=0.5;entryY=1;entryDx=0;entryDy=0;" parent="1" source="G6DUn3PrahZ7DZmVtPV8-16" target="7EMFtu5dMHOGTsIcaVN--35" edge="1">
          <mxGeometry relative="1" as="geometry">
            <mxPoint x="360" y="885" as="targetPoint" />
          </mxGeometry>
        </mxCell>
        <mxCell id="G6DUn3PrahZ7DZmVtPV8-15" style="edgeStyle=orthogonalEdgeStyle;shape=connector;rounded=0;orthogonalLoop=1;jettySize=auto;html=1;exitX=0.5;exitY=1;exitDx=0;exitDy=0;entryX=0.5;entryY=1;entryDx=0;entryDy=0;labelBackgroundColor=none;strokeColor=default;align=center;verticalAlign=middle;fontFamily=Helvetica;fontSize=9;fontColor=#000000;endArrow=open;endFill=0;" parent="1" source="7EMFtu5dMHOGTsIcaVN--20" target="7EMFtu5dMHOGTsIcaVN--29" edge="1">
          <mxGeometry relative="1" as="geometry" />
        </mxCell>
        <mxCell id="G6DUn3PrahZ7DZmVtPV8-17" value="&lt;span style=&quot;color: rgb(122, 122, 122); font-family: Helvetica; font-size: 9px; font-style: normal; font-variant-ligatures: normal; font-variant-caps: normal; font-weight: 700; letter-spacing: normal; orphans: 2; text-align: center; text-indent: 0px; text-transform: none; widows: 2; word-spacing: 0px; -webkit-text-stroke-width: 0px; background-color: rgb(255, 255, 255); text-decoration-thickness: initial; text-decoration-style: initial; text-decoration-color: initial; float: none; display: inline !important;&quot;&gt;request&lt;/span&gt;" style="edgeStyle=none;shape=connector;rounded=0;orthogonalLoop=1;jettySize=auto;html=1;exitX=1;exitY=0.25;exitDx=0;exitDy=0;entryX=0;entryY=0.25;entryDx=0;entryDy=0;labelBackgroundColor=none;strokeColor=default;align=center;verticalAlign=middle;fontFamily=Helvetica;fontSize=9;fontColor=#000000;endArrow=open;endFill=0;" parent="1" source="7EMFtu5dMHOGTsIcaVN--20" target="G6DUn3PrahZ7DZmVtPV8-16" edge="1">
          <mxGeometry relative="1" as="geometry" />
        </mxCell>
        <mxCell id="7EMFtu5dMHOGTsIcaVN--20" value="Completed" style="rounded=1;whiteSpace=wrap;html=1;labelBackgroundColor=none;align=center;verticalAlign=middle;fontFamily=Helvetica;fontSize=9;fontColor=#000000;fillColor=none;gradientColor=none;fontStyle=1" parent="1" vertex="1">
          <mxGeometry x="210" y="870" width="70" height="30" as="geometry" />
        </mxCell>
        <mxCell id="7EMFtu5dMHOGTsIcaVN--52" value="&lt;span style=&quot;color: rgb(122, 122, 122); font-family: Helvetica; font-size: 9px; font-style: normal; font-variant-ligatures: normal; font-variant-caps: normal; font-weight: 700; letter-spacing: normal; orphans: 2; text-align: center; text-indent: 0px; text-transform: none; widows: 2; word-spacing: 0px; -webkit-text-stroke-width: 0px; background-color: rgb(255, 255, 255); text-decoration-thickness: initial; text-decoration-style: initial; text-decoration-color: initial; float: none; display: inline !important;&quot;&gt;refund&lt;/span&gt;" style="edgeStyle=orthogonalEdgeStyle;shape=connector;rounded=0;orthogonalLoop=1;jettySize=auto;html=1;exitX=1;exitY=0.5;exitDx=0;exitDy=0;entryX=0;entryY=0.5;entryDx=0;entryDy=0;labelBackgroundColor=default;strokeColor=default;align=center;verticalAlign=middle;fontFamily=Helvetica;fontSize=9;fontColor=#7A7A7A;endArrow=open;endFill=0;" parent="1" source="7EMFtu5dMHOGTsIcaVN--35" target="7EMFtu5dMHOGTsIcaVN--51" edge="1">
          <mxGeometry relative="1" as="geometry" />
        </mxCell>
        <mxCell id="7EMFtu5dMHOGTsIcaVN--35" value="Returned" style="rounded=1;whiteSpace=wrap;html=1;labelBackgroundColor=none;align=center;verticalAlign=middle;fontFamily=Helvetica;fontSize=9;fillColor=#fff2cc;fontStyle=1;strokeColor=#d6b656;" parent="1" vertex="1">
          <mxGeometry x="360" y="760" width="70" height="30" as="geometry" />
        </mxCell>
        <mxCell id="7EMFtu5dMHOGTsIcaVN--36" value="" style="group;fontStyle=1" parent="1" vertex="1" connectable="0">
          <mxGeometry x="625" y="330" width="20" height="20" as="geometry" />
        </mxCell>
        <mxCell id="7EMFtu5dMHOGTsIcaVN--29" value="&lt;span style=&quot;&quot;&gt;Final&lt;br&gt;&lt;/span&gt;" style="ellipse;html=1;aspect=fixed;labelBackgroundColor=none;align=center;verticalAlign=bottom;fontFamily=Helvetica;fontSize=9;fontColor=#000000;fillColor=none;gradientColor=none;strokeColor=default;whiteSpace=wrap;labelPosition=center;verticalLabelPosition=top;fontStyle=1" parent="7EMFtu5dMHOGTsIcaVN--36" vertex="1">
          <mxGeometry width="20" height="20" as="geometry" />
        </mxCell>
        <mxCell id="7EMFtu5dMHOGTsIcaVN--32" value="" style="ellipse;whiteSpace=wrap;html=1;aspect=fixed;rounded=1;labelBackgroundColor=none;strokeColor=none;align=center;verticalAlign=middle;fontFamily=Helvetica;fontSize=9;fontColor=#000000;fillColor=#000000;gradientColor=none;" parent="7EMFtu5dMHOGTsIcaVN--36" vertex="1">
          <mxGeometry x="5" y="5" width="10" height="10" as="geometry" />
        </mxCell>
        <mxCell id="7EMFtu5dMHOGTsIcaVN--40" value="On hold" style="rounded=1;whiteSpace=wrap;html=1;labelBackgroundColor=none;align=center;verticalAlign=middle;fontFamily=Helvetica;fontSize=9;fontColor=#000000;fillColor=none;gradientColor=none;fontStyle=1" parent="1" vertex="1">
          <mxGeometry x="360" y="430" width="70" height="30" as="geometry" />
        </mxCell>
        <mxCell id="7EMFtu5dMHOGTsIcaVN--55" value="&lt;span style=&quot;color: rgb(122, 122, 122); font-family: Helvetica; font-size: 9px; font-style: normal; font-variant-ligatures: normal; font-variant-caps: normal; font-weight: 700; letter-spacing: normal; orphans: 2; text-align: center; text-indent: 0px; text-transform: none; widows: 2; word-spacing: 0px; -webkit-text-stroke-width: 0px; background-color: rgb(255, 255, 255); text-decoration-thickness: initial; text-decoration-style: initial; text-decoration-color: initial; float: none; display: inline !important;&quot;&gt;close&lt;/span&gt;" style="edgeStyle=orthogonalEdgeStyle;shape=connector;rounded=0;orthogonalLoop=1;jettySize=auto;html=1;exitX=1;exitY=0.5;exitDx=0;exitDy=0;labelBackgroundColor=default;strokeColor=default;align=center;verticalAlign=middle;fontFamily=Helvetica;fontSize=9;fontColor=#7A7A7A;endArrow=open;endFill=0;" parent="1" source="7EMFtu5dMHOGTsIcaVN--51" edge="1">
          <mxGeometry x="0.7985" relative="1" as="geometry">
            <mxPoint x="634.9999999999998" y="350" as="targetPoint" />
            <mxPoint as="offset" />
          </mxGeometry>
        </mxCell>
        <mxCell id="7EMFtu5dMHOGTsIcaVN--51" value="Refunded" style="rounded=1;whiteSpace=wrap;html=1;labelBackgroundColor=none;align=center;verticalAlign=middle;fontFamily=Helvetica;fontSize=9;fillColor=#fff2cc;fontStyle=1;strokeColor=#d6b656;" parent="1" vertex="1">
          <mxGeometry x="510" y="760" width="70" height="30" as="geometry" />
        </mxCell>
        <mxCell id="G6DUn3PrahZ7DZmVtPV8-4" value="retry" style="edgeStyle=orthogonalEdgeStyle;shape=connector;rounded=0;orthogonalLoop=1;jettySize=auto;html=1;exitX=0;exitY=0.25;exitDx=0;exitDy=0;entryX=1;entryY=0.25;entryDx=0;entryDy=0;labelBackgroundColor=default;strokeColor=default;align=center;verticalAlign=middle;fontFamily=Helvetica;fontSize=9;fontColor=#7A7A7A;endArrow=open;endFill=0;fontStyle=1;" parent="1" source="7EMFtu5dMHOGTsIcaVN--40" target="7EMFtu5dMHOGTsIcaVN--1" edge="1">
          <mxGeometry relative="1" as="geometry">
            <mxPoint x="290" y="463" as="sourcePoint" />
            <mxPoint x="370" y="463" as="targetPoint" />
            <mxPoint as="offset" />
          </mxGeometry>
        </mxCell>
        <mxCell id="G6DUn3PrahZ7DZmVtPV8-6" style="edgeStyle=orthogonalEdgeStyle;rounded=0;orthogonalLoop=1;jettySize=auto;html=1;exitX=1;exitY=0.5;exitDx=0;exitDy=0;entryX=0.5;entryY=1;entryDx=0;entryDy=0;" parent="1" source="G6DUn3PrahZ7DZmVtPV8-5" target="7EMFtu5dMHOGTsIcaVN--29" edge="1">
          <mxGeometry relative="1" as="geometry" />
        </mxCell>
        <mxCell id="G6DUn3PrahZ7DZmVtPV8-5" value="Cancelled" style="rounded=1;whiteSpace=wrap;html=1;labelBackgroundColor=none;align=center;verticalAlign=middle;fontFamily=Helvetica;fontSize=9;fontColor=#000000;fillColor=none;gradientColor=none;fontStyle=1" parent="1" vertex="1">
          <mxGeometry x="490" y="430" width="70" height="30" as="geometry" />
        </mxCell>
        <mxCell id="G6DUn3PrahZ7DZmVtPV8-7" value="cancel" style="edgeStyle=orthogonalEdgeStyle;shape=connector;rounded=0;orthogonalLoop=1;jettySize=auto;html=1;exitX=1;exitY=0.5;exitDx=0;exitDy=0;entryX=0;entryY=0.5;entryDx=0;entryDy=0;labelBackgroundColor=default;strokeColor=default;align=center;verticalAlign=middle;fontFamily=Helvetica;fontSize=9;fontColor=#7A7A7A;endArrow=open;endFill=0;fontStyle=1;" parent="1" source="7EMFtu5dMHOGTsIcaVN--40" target="G6DUn3PrahZ7DZmVtPV8-5" edge="1">
          <mxGeometry x="-0.0917" relative="1" as="geometry">
            <mxPoint as="offset" />
            <mxPoint x="290" y="565" as="sourcePoint" />
            <mxPoint x="370" y="565" as="targetPoint" />
          </mxGeometry>
        </mxCell>
        <mxCell id="G6DUn3PrahZ7DZmVtPV8-12" value="&lt;span style=&quot;color: rgb(122, 122, 122); font-family: Helvetica; font-size: 9px; font-style: normal; font-variant-ligatures: normal; font-variant-caps: normal; font-weight: 700; letter-spacing: normal; orphans: 2; text-align: center; text-indent: 0px; text-transform: none; widows: 2; word-spacing: 0px; -webkit-text-stroke-width: 0px; background-color: rgb(255, 255, 255); text-decoration-thickness: initial; text-decoration-style: initial; text-decoration-color: initial; float: none; display: inline !important;&quot;&gt;dispatch&lt;/span&gt;" style="edgeStyle=none;shape=connector;rounded=0;orthogonalLoop=1;jettySize=auto;html=1;labelBackgroundColor=none;strokeColor=default;align=center;verticalAlign=middle;fontFamily=Helvetica;fontSize=9;fontColor=#000000;endArrow=open;endFill=0;" parent="1" source="G6DUn3PrahZ7DZmVtPV8-9" target="7EMFtu5dMHOGTsIcaVN--17" edge="1">
          <mxGeometry relative="1" as="geometry" />
        </mxCell>
        <mxCell id="G6DUn3PrahZ7DZmVtPV8-20" value="&lt;span style=&quot;color: rgb(122, 122, 122); font-family: Helvetica; font-size: 9px; font-style: normal; font-variant-ligatures: normal; font-variant-caps: normal; font-weight: 700; letter-spacing: normal; orphans: 2; text-align: center; text-indent: 0px; text-transform: none; widows: 2; word-spacing: 0px; -webkit-text-stroke-width: 0px; background-color: rgb(255, 255, 255); text-decoration-thickness: initial; text-decoration-style: initial; text-decoration-color: initial; float: none; display: inline !important;&quot;&gt;transfer&lt;/span&gt;" style="edgeStyle=none;shape=connector;rounded=0;orthogonalLoop=1;jettySize=auto;html=1;exitX=1;exitY=0.5;exitDx=0;exitDy=0;labelBackgroundColor=none;strokeColor=default;align=center;verticalAlign=middle;fontFamily=Helvetica;fontSize=9;fontColor=#000000;endArrow=open;endFill=0;" parent="1" source="G6DUn3PrahZ7DZmVtPV8-9" target="G6DUn3PrahZ7DZmVtPV8-19" edge="1">
          <mxGeometry relative="1" as="geometry" />
        </mxCell>
        <mxCell id="G6DUn3PrahZ7DZmVtPV8-9" value="Processing" style="rounded=1;whiteSpace=wrap;html=1;labelBackgroundColor=none;align=center;verticalAlign=middle;fontFamily=Helvetica;fontSize=9;fontColor=#000000;fillColor=none;gradientColor=none;fontStyle=1" parent="1" vertex="1">
          <mxGeometry x="210" y="640" width="70" height="30" as="geometry" />
        </mxCell>
        <mxCell id="G6DUn3PrahZ7DZmVtPV8-16" value="Refund Requested" style="rounded=1;whiteSpace=wrap;html=1;labelBackgroundColor=none;align=center;verticalAlign=middle;fontFamily=Helvetica;fontSize=9;fillColor=#fff2cc;fontStyle=1;strokeColor=#d6b656;" parent="1" vertex="1">
          <mxGeometry x="360" y="870" width="70" height="30" as="geometry" />
        </mxCell>
        <mxCell id="G6DUn3PrahZ7DZmVtPV8-18" value="&lt;span style=&quot;color: rgb(122, 122, 122); font-family: Helvetica; font-size: 9px; font-style: normal; font-variant-ligatures: normal; font-variant-caps: normal; font-weight: 700; letter-spacing: normal; orphans: 2; text-align: center; text-indent: 0px; text-transform: none; widows: 2; word-spacing: 0px; -webkit-text-stroke-width: 0px; background-color: rgb(255, 255, 255); text-decoration-thickness: initial; text-decoration-style: initial; text-decoration-color: initial; float: none; display: inline !important;&quot;&gt;deny&lt;/span&gt;" style="edgeStyle=none;shape=connector;rounded=0;orthogonalLoop=1;jettySize=auto;html=1;exitX=0;exitY=0.75;exitDx=0;exitDy=0;entryX=1;entryY=0.75;entryDx=0;entryDy=0;labelBackgroundColor=none;strokeColor=default;align=center;verticalAlign=middle;fontFamily=Helvetica;fontSize=9;fontColor=#000000;endArrow=open;endFill=0;" parent="1" source="G6DUn3PrahZ7DZmVtPV8-16" target="7EMFtu5dMHOGTsIcaVN--20" edge="1">
          <mxGeometry relative="1" as="geometry">
            <mxPoint x="290" y="888" as="sourcePoint" />
            <mxPoint x="370" y="888" as="targetPoint" />
          </mxGeometry>
        </mxCell>
        <mxCell id="G6DUn3PrahZ7DZmVtPV8-22" value="&lt;font color=&quot;#7a7a7a&quot;&gt;&lt;span style=&quot;background-color: rgb(255, 255, 255);&quot;&gt;&lt;b&gt;prepare&lt;/b&gt;&lt;/span&gt;&lt;/font&gt;" style="edgeStyle=none;shape=connector;rounded=0;orthogonalLoop=1;jettySize=auto;html=1;exitX=1;exitY=0.5;exitDx=0;exitDy=0;entryX=0;entryY=0.5;entryDx=0;entryDy=0;labelBackgroundColor=none;strokeColor=default;align=center;verticalAlign=middle;fontFamily=Helvetica;fontSize=9;fontColor=#000000;endArrow=open;endFill=0;" parent="1" source="G6DUn3PrahZ7DZmVtPV8-19" target="G6DUn3PrahZ7DZmVtPV8-21" edge="1">
          <mxGeometry relative="1" as="geometry" />
        </mxCell>
        <mxCell id="G6DUn3PrahZ7DZmVtPV8-19" value="Shipped to Store" style="rounded=1;whiteSpace=wrap;html=1;labelBackgroundColor=none;align=center;verticalAlign=middle;fontFamily=Helvetica;fontSize=9;fillColor=#fff2cc;fontStyle=1;strokeColor=#d6b656;" parent="1" vertex="1">
          <mxGeometry x="355" y="640" width="70" height="30" as="geometry" />
        </mxCell>
        <mxCell id="G6DUn3PrahZ7DZmVtPV8-23" style="edgeStyle=orthogonalEdgeStyle;shape=connector;rounded=0;orthogonalLoop=1;jettySize=auto;html=1;entryX=0.75;entryY=0;entryDx=0;entryDy=0;labelBackgroundColor=none;strokeColor=default;align=center;verticalAlign=middle;fontFamily=Helvetica;fontSize=9;fontColor=#000000;endArrow=open;endFill=0;exitX=0.5;exitY=1;exitDx=0;exitDy=0;" parent="1" source="G6DUn3PrahZ7DZmVtPV8-21" target="7EMFtu5dMHOGTsIcaVN--20" edge="1">
          <mxGeometry relative="1" as="geometry">
            <Array as="points">
              <mxPoint x="545" y="710" />
              <mxPoint x="310" y="710" />
              <mxPoint x="310" y="820" />
              <mxPoint x="245" y="820" />
              <mxPoint x="245" y="870" />
            </Array>
          </mxGeometry>
        </mxCell>
        <mxCell id="G6DUn3PrahZ7DZmVtPV8-21" value="Ready for Pickup" style="rounded=1;whiteSpace=wrap;html=1;labelBackgroundColor=none;align=center;verticalAlign=middle;fontFamily=Helvetica;fontSize=9;fillColor=#fff2cc;fontStyle=1;strokeColor=#d6b656;" parent="1" vertex="1">
          <mxGeometry x="510" y="640" width="70" height="30" as="geometry" />
        </mxCell>
        <mxCell id="Eexqk8aigqiQ7GfiH7Qv-1" value="MVP" style="rounded=1;whiteSpace=wrap;html=1;labelBackgroundColor=none;align=center;verticalAlign=middle;fontFamily=Helvetica;fontSize=9;fontColor=#000000;fillColor=none;gradientColor=none;fontStyle=1" parent="1" vertex="1">
          <mxGeometry x="475" y="140" width="70" height="30" as="geometry" />
        </mxCell>
        <mxCell id="Eexqk8aigqiQ7GfiH7Qv-2" value="not in MVP" style="rounded=1;whiteSpace=wrap;html=1;labelBackgroundColor=none;align=center;verticalAlign=middle;fontFamily=Helvetica;fontSize=9;fillColor=#fff2cc;fontStyle=1;strokeColor=#d6b656;" parent="1" vertex="1">
          <mxGeometry x="575" y="140" width="70" height="30" as="geometry" />
        </mxCell>
      </root>
    </mxGraphModel>
  </diagram>
</mxfile>
